<?xml version="1.0" encoding="UTF-8"?><svg id="Capa_1" xmlns="http://www.w3.org/2000/svg" viewBox="0 0 239.24 234.31"><defs><style>.cls-1,.cls-2{stroke-linecap:round;}.cls-1,.cls-2,.cls-3{fill:none;stroke:#020101;stroke-width:7px;}.cls-1,.cls-3{stroke-miterlimit:10;}.cls-2{stroke-linejoin:round;}.cls-4{fill:#020101;}</style></defs><g><path class="cls-2" d="M74,134.24h91.24c11.52,0,20.88,9.36,20.88,20.88v71.4H53.12v-71.4c0-11.52,9.36-20.88,20.88-20.88Z"/><polygon class="cls-4" points="109.14 136.65 130.1 136.65 139.04 183.73 119.13 205.04 100.89 183.39 109.14 136.65"/><line class="cls-2" x1="81.96" y1="183.21" x2="81.96" y2="221.88"/><line class="cls-2" x1="159.1" y1="184.08" x2="159.1" y2="222.74"/></g><g><path class="cls-2" d="M68.29,88.88S35.29,7.77,117.43,7.77s52.58,81.11,52.58,81.11"/><path class="cls-2" d="M161.58,24.26c9.28,57.18-48.24,34.37-71.14,41.24s-23.16,20.62-23.16,20.62"/><path class="cls-2" d="M169.83,88.88s2.47-22.39-15.78-31.3"/><path class="cls-1" d="M68.8,90.94s6.86,43.76,52.57,43.65c43.48-2.75,48.57-43.65,48.57-43.65"/><path class="cls-3" d="M168.84,103.41s10.66,1.4,15.52-9.41c4.86-10.81-9.56-17.3-9.56-17.3"/><path class="cls-3" d="M63.58,77.45s-10.16,3.5-9.68,15.35,16.28,11.21,16.28,11.21"/><path class="cls-4" d="M104.01,103.47h32.48s3.09,18.4-16.24,18.4-16.24-18.4-16.24-18.4Z"/><rect class="cls-4" x="92.15" y="81.44" width="11.68" height="9.49"/><rect class="cls-4" x="133.23" y="81.61" width="11.68" height="9.49"/></g></svg>