<svg id="Capa_1" data-name="Capa 1" xmlns="http://www.w3.org/2000/svg" viewBox="0 0 239.31 239.54"><defs><style>.cls-1,.cls-2{fill:none;stroke:#000;stroke-linejoin:round;}.cls-1{stroke-linecap:round;stroke-width:7px;}.cls-2{stroke-width:8px;}</style></defs><path class="cls-1" d="M114.62,144.68v0Z" transform="translate(-7.26 -7.8)"/><path class="cls-1" d="M139.41,144.68v0Z" transform="translate(-7.26 -7.8)"/><rect class="cls-2" x="4" y="4.95" width="57.56" height="76.47"/><line class="cls-2" x1="24.17" y1="19.66" x2="40.97" y2="19.66"/><line class="cls-2" x1="21.23" y1="36.04" x2="44.34" y2="36.04"/><line class="cls-2" x1="21.23" y1="52.43" x2="44.34" y2="52.43"/><line class="cls-2" x1="28.37" y1="67.82" x2="36.77" y2="67.82"/><polyline class="cls-2" points="32.57 95.29 32.57 111.25 59.46 139.82"/><polyline class="cls-2" points="200.22 64.61 200.22 83.1 173.33 83.1"/><polyline class="cls-2" points="189.29 172.6 200.22 172.6 212.4 161.25"/><path class="cls-2" d="M196.55,128s23.11-20,45.38,0" transform="translate(-7.26 -7.8)"/><path class="cls-2" d="M205.38,141.24s14.55-12.62,28.57,0" transform="translate(-7.26 -7.8)"/><line class="cls-2" x1="208.2" y1="143.61" x2="216.61" y2="143.61"/><path class="cls-1" d="M196.55,24.61c-4.2-2.62-16-1.36-12.6,11.46-23.95,4-9.24,24.9-3.36,24.16,3.78,1.68,51.26-.75,55,0,16-13.87,2.94-25.21-8.4-25.63C234,4.76,200.76,6,196.55,24.61Z" transform="translate(-7.26 -7.8)"/><rect class="cls-1" x="5.68" y="203.69" width="228.99" height="15.13"/><polygon class="cls-1" points="15.77 220.08 15.77 236.04 223.75 236.04 223.75 219.24 15.77 220.08"/><path class="cls-1" d="M88,207.71s-10.49-53-6.56-56.31,90.94-4.2,92.91-2.1-5.46,58.41-5.46,58.41Z" transform="translate(-7.26 -7.8)"/><path class="cls-1" d="M71.76,207.71s-8.4-42.44,8.82-48.32" transform="translate(-7.26 -7.8)"/><path class="cls-1" d="M184,207.71s5.88-35.3-9.24-48.32" transform="translate(-7.26 -7.8)"/><path class="cls-1" d="M84.37,55.61l7.14,16.8L87.94,80l9.88,9.25v23.11s6.72,26,29.62,23.3,27.1-20.36,27.1-20.36V90.9l9.24-9.24s8.83-25.21-21-27.74S84.37,55.61,84.37,55.61Z" transform="translate(-7.26 -7.8)"/><path class="cls-1" d="M99.92,90.9s27.47,7,43.69-11.77c2.1,10.09,7.57,13,7.57,13" transform="translate(-7.26 -7.8)"/><path class="cls-1" d="M94.87,94.48s-16.8,8.08,0,16.17" transform="translate(-7.26 -7.8)"/><path class="cls-1" d="M157.9,110.65s16.81-8.09,0-16.17" transform="translate(-7.26 -7.8)"/><circle class="cls-1" cx="121.44" cy="163.98" r="8.61"/><path class="cls-1" d="M87.4,195.1h0Z" transform="translate(-7.26 -7.8)"/><line class="cls-2" x1="104.42" y1="96.29" x2="112.82" y2="96.29"/><line class="cls-2" x1="127.95" y1="96.29" x2="136.35" y2="96.29"/></svg>