    <svg xmlns="http://www.w3.org/2000/svg" data-name="Layer 1" viewBox="0 0 512 512"><path d="M138.50879,443.59961l-71-.08691H67.5a7.5,7.5,0,0,0-.00879,15l71,.08691H138.5a7.5,7.5,0,0,0,.00879-15ZM501.792,318.11816l-51.58008-51.5791a34.71983,34.71983,0,0,0-23.04834-10.15271l-23.12036-23.12048A120.06514,120.06514,0,0,0,387.45605,84.29053q-2.66381-2.66382-5.45605-5.117V37.5A37.54227,37.54227,0,0,0,344.5,0H37.5A37.54227,37.54227,0,0,0,0,37.5v437A37.54227,37.54227,0,0,0,37.5,512H293.29492c.03491,0,.06934-.00464.104-.00513.03418.00049.06689.00513.10107.00513a7.49024,7.49024,0,0,0,6.20044-3.28149l80.06128-78.82007A7.50174,7.50174,0,0,0,382,424.55371V284.011l8.76611,8.76355a34.71883,34.71883,0,0,0,10.15381,23.05651L452.5,367.41016a34.8547,34.8547,0,1,0,49.292-49.292ZM301,486.38977V454.5A22.52586,22.52586,0,0,1,323.5,432h32.74634ZM367,417H323.5A37.54227,37.54227,0,0,0,286,454.5V497H37.5A22.52586,22.52586,0,0,1,15,474.5V37.5A22.52554,22.52554,0,0,1,37.5,15h307A22.52554,22.52554,0,0,1,367,37.5V67.88062a120.00157,120.00157,0,0,0-165.82324,37.21679L52.50488,105H52.5a7.5,7.5,0,0,0-.00488,15l140.65967.092a119.44822,119.44822,0,0,0-5.5293,14.99414L52.50488,135a7.5,7.5,0,0,0-.00976,15l131.75244.084a120.88181,120.88181,0,0,0-1.43872,15.001L52.50488,165a7.5,7.5,0,0,0-.00976,15l130.74218.08521A120.11837,120.11837,0,0,0,251,277.45276v76.12781l-30-.01319V282.1123a22.52586,22.52586,0,0,0-22.5-22.5h-15a22.52586,22.52586,0,0,0-22.5,22.5v71.42859l-30-.01318V312.1123a22.52586,22.52586,0,0,0-22.5-22.5h-15a22.52586,22.52586,0,0,0-22.5,22.5v41.38892l-20.49707-.009H50.5a7.5,7.5,0,0,0-.00293,15l26.77979.01172A7.5079,7.5079,0,0,0,78.5,368.6123h45a7.53375,7.53375,0,0,0,1.08643-.0874l42.95117.0188a7.53766,7.53766,0,0,0,.9624.0686h45a7.58436,7.58436,0,0,0,.82715-.04785l43.605.01929c.188.014.37622.02856.56787.02856h45c.05688,0,.11182-.0072.16821-.00854l30.32886.01343H334a7.5,7.5,0,0,0,.00293-15L311,353.60706V288.77832a118.84463,118.84463,0,0,0,56-18.39526ZM206,282.1123v71.44849l-30-.01318V282.1123a7.5082,7.5082,0,0,1,7.5-7.5h15A7.5082,7.5082,0,0,1,206,282.1123Zm-90,30V353.521l-30-.01319V312.1123a7.5082,7.5082,0,0,1,7.5-7.5h15A7.5082,7.5082,0,0,1,116,312.1123Zm150,41.47486V283.39209a119.828,119.828,0,0,0,30,5.49194v64.71631Zm110.84863-110.259a106.38053,106.38053,0,0,1-12.25,10.51856c-.07885.05176-.15356.11194-.23071.167a105.261,105.261,0,0,1-102.47778,11.8805,7.43972,7.43972,0,0,0-.86719-.37183A104.96609,104.96609,0,1,1,388.4834,229.53589c-.148.18616-.28711.37659-.41455.57275A106.2942,106.2942,0,0,1,376.84863,243.32812Zm17.6836,32.00049-14.54029-14.53515q3.84852-3.25836,7.46314-6.85889,4.04332-4.043,7.64575-8.397l14.6123,14.61279a34.74839,34.74839,0,0,0-15.1809,15.17822Zm96.65234,81.4751a19.85243,19.85243,0,0,1-28.07715,0l-51.58008-51.58008a19.85355,19.85355,0,0,1,28.07715-28.07715l51.58008,51.57911A19.87485,19.87485,0,0,1,491.18457,356.80371ZM127.49121,60l97,.11279H224.5a7.5,7.5,0,0,0,.00879-15l-97-.11279H127.5a7.5,7.5,0,0,0-.00879,15Zm119.0332,323.59961-55-.08691H191.5a15.50065,15.50065,0,0,0-15.5,15.5v14a15.5229,15.5229,0,0,0,15.47559,15.5l55,.08691H246.5a15.499,15.499,0,0,0,15.5-15.5v-14A15.52289,15.52289,0,0,0,246.52441,383.59961Zm.47559,29.5a.47531.47531,0,0,1-.14648.35351.42045.42045,0,0,1-.3545.14649l-55-.08691a.50013.50013,0,0,1-.499-.5v-14a.50012.50012,0,0,1,.501-.5l55,.08691a.50013.50013,0,0,1,.499.5Zm-116.47559-29.5-55-.08691H75.5a15.50065,15.50065,0,0,0-15.5,15.5v14a15.5229,15.5229,0,0,0,15.47559,15.5l55,.08691H130.5a15.499,15.499,0,0,0,15.5-15.5v-14A15.52289,15.52289,0,0,0,130.52441,383.59961Zm.47559,29.5a.47531.47531,0,0,1-.14648.35351.424.424,0,0,1-.3545.14649l-55-.08691a.50013.50013,0,0,1-.499-.5v-14a.47651.47651,0,0,1,.14648-.35352.55164.55164,0,0,1,.3545-.14648l55,.08691a.50013.50013,0,0,1,.499.5ZM302.63379,85.66406a83.44875,83.44875,0,1,0,59.0332,24.41651A82.92047,82.92047,0,0,0,302.63379,85.66406Zm7.18652,151.51319A68.61455,68.61455,0,0,1,267.5,227.89661V180.14014a7.5082,7.5082,0,0,1,7.5-7.5h27.32031a7.5082,7.5082,0,0,1,7.5,7.5Zm41.23926-19.63868A68.05108,68.05108,0,0,1,324.82031,233.886V180.14014a22.52554,22.52554,0,0,0-22.5-22.5H275a22.52554,22.52554,0,0,0-22.5,22.5v35.604a68.70552,68.70552,0,0,1-13.01953-73.15564l75.00879.10779H314.5a7.5,7.5,0,0,0,.01074-15l-66.33545-.09534A69.16722,69.16722,0,0,1,254.209,120.687a68.48405,68.48405,0,0,1,96.85059,96.85156Zm-96.5498,226.061-67.79395-.08691h-.00977a7.5,7.5,0,0,0-.00976,15l67.79394.08691H254.5a7.5,7.5,0,0,0,.00977-15Z"/></svg>