<?xml version="1.0" encoding="UTF-8"?><svg id="Capa_1" xmlns="http://www.w3.org/2000/svg" viewBox="0 0 306.69 256"><defs><style>.cls-1{stroke-width:8px;}.cls-1,.cls-2{fill:none;stroke:#000;stroke-miterlimit:10;}.cls-2{stroke-width:7px;}</style></defs><rect class="cls-1" x="8.33" y="62.7" width="136.61" height="162.38"/><path class="cls-1" d="M293.73,198.94l-148.79,26.14s-.64-162.67,0-162.38l148.79,30.86v105.38Z"/><line class="cls-1" x1="171.17" y1="87.97" x2="171.17" y2="200.4"/><line class="cls-1" x1="50.41" y1="91.32" x2="50.41" y2="132.13"/><line class="cls-1" x1="75.67" y1="91.32" x2="75.67" y2="132.13"/><line class="cls-1" x1="100.92" y1="91.16" x2="100.92" y2="131.97"/><line class="cls-1" x1="192" y1="92.46" x2="192" y2="197.55"/><line class="cls-1" x1="211.35" y1="97.01" x2="211.35" y2="193.74"/><line class="cls-1" x1="232.5" y1="100.75" x2="232.5" y2="189.74"/><line class="cls-1" x1="251.26" y1="105.02" x2="251.26" y2="186.93"/><line class="cls-1" x1="272.5" y1="109.54" x2="272.5" y2="183.02"/><rect class="cls-1" x="28.73" y="82.02" width="94.23" height="124.02"/><path class="cls-2" d="M37.94,34.6h7.47c5.38,0,9.74,4.36,9.74,9.74v18.36H28.48v-18.64c0-5.22,4.24-9.46,9.46-9.46Z"/><path class="cls-2" d="M123.58,34.6h7.47c5.38,0,9.74,4.36,9.74,9.74v18.36h-26.67v-18.64c0-5.22,4.24-9.46,9.46-9.46Z"/><rect class="cls-1" x="49.77" y="151.65" width="52.15" height="31.37"/></svg>