<?xml version="1.0" encoding="UTF-8"?><svg id="Capa_5" xmlns="http://www.w3.org/2000/svg" viewBox="0 0 239.24 234.31"><defs><style>.cls-1{stroke-width:6px;}.cls-1,.cls-2{fill:none;stroke:#000;}.cls-2{stroke-linecap:round;stroke-linejoin:round;stroke-width:7px;}</style></defs><path class="cls-2" d="M75.32,46.28s25.03-9.4,25.53-9.76,0-20.25,0-20.25h36.31v19.17l27.12,10.85,14.1-13.38,24.59,24.95-13.74,14.83,11.57,26.4h19.53v35.44h-19.53l-10.49,26.4,13.02,14.1-24.95,24.59-14.47-12.3-26.04,10.13v20.61h-37.03v-19.89l-25.53-10.49-14.1,13.02-25.31-25.31,14.1-14.1-11.93-26.4-19.17-.36v-36.16l20.25,.36,10.85-25.31-14.1-15.55,24.95-24.95,14.47,13.38Z"/><circle class="cls-2" cx="119.62" cy="117.15" r="57.36"/><g><path class="cls-1" d="M100.1,96.07c1.07-.2,2.43,.49,4.02,1.58,4.13,2.82,9.84,8.28,16.11,7.5,8.68-1.08,14.6-10.84,19.08-9.72"/><path class="cls-1" d="M104.26,96.23s1.02-10.78,8.44-15.15c1.89-1.11,4.19-1.81,7-1.81,13.84,0,15.76,16.07,15.76,16.07"/><line class="cls-1" x1="113.7" y1="92.23" x2="113.7" y2="80.56"/><line class="cls-1" x1="126.02" y1="92.23" x2="126.02" y2="80.63"/><line class="cls-1" x1="119.7" y1="73.51" x2="119.7" y2="79.27"/><path class="cls-1" d="M106.5,100.28s-4,22.67,13.2,22.67,13.32-24.8,13.32-24.8"/><path class="cls-1" d="M112.29,120.98c-14.91,9.33-27.71,5.81-26.11,24.21,3.04,5.92,61.12,6.24,66.88,.8,1.76-18.08-13.76-17.6-26.2-25.01"/><polyline class="cls-1" points="109.61 122.95 109.61 135.42 129.2 135.42 129.2 122.95"/><line class="cls-1" x1="100.1" y1="126.72" x2="100.1" y2="148.93"/><line class="cls-1" x1="138.12" y1="126.15" x2="138.12" y2="148.93"/></g></svg>