<?xml version="1.0" encoding="UTF-8"?><svg id="Capa_1" xmlns="http://www.w3.org/2000/svg" viewBox="0 0 239.24 234.31"><defs><style>.cls-1{fill:none;stroke:#020202;stroke-miterlimit:10;stroke-width:10px;}.cls-2{fill:#020202;}</style></defs><circle class="cls-1" cx="144.37" cy="95.19" r="82.1"/><circle class="cls-1" cx="144.37" cy="95.19" r="65.38"/><path class="cls-2" d="M141.76,129.04l37.52-38.77c1.6-1.65,2.4-3.92,2.17-6.22-.26-2.61-1.22-6.06-4.16-9.06-2.61-2.67-5.83-2.87-8.53-2.3s-5.36,2.12-7.34,4.21l-20.95,22.11c-.32,.33-.84,.35-1.17,.04l-12.43-11.63c-2.07-1.93-4.6-3.34-7.38-3.89-3.12-.62-6.94-.31-9.75,3.39-2.21,2.91-2.69,6.01-2.45,8.7,.33,3.67,2.13,7.05,4.83,9.56l25.81,23.95c1.09,1.01,2.79,.96,3.82-.1Z"/><path class="cls-1" d="M85.97,153.14l-25.71,27.42,25.71-27.42Z"/><path class="cls-2" d="M56.02,176.91l8.7,8.7-35.67,34.39c-1.06,.51-2.88,1.21-4.53,1.21-1.1,0-1.95-.26-2.99-1.6-1.77-2.28-1.71-3.94-1.46-5.14,.27-1.28,.87-2.31,1.17-2.78l34.78-34.78m-34.6,34.51h0m34.6-48.65L13.64,205.15s-8.32,9.9,0,20.6c3.26,4.19,7.24,5.46,10.88,5.46,5.67,0,10.51-3.08,10.51-3.08l43.97-42.38-22.97-22.97h0Z"/></svg>