<svg id="Capa_1" enable-background="new 0 0 512 512" height="512" viewBox="0 0 512 512" width="512" xmlns="http://www.w3.org/2000/svg"><g><g><path d="m99.978 397.845c-19.723 0-35.769 16.046-35.769 35.769s16.046 35.769 35.769 35.769c19.724 0 35.769-16.046 35.769-35.769s-16.045-35.769-35.769-35.769zm0 56.552c-11.459 0-20.782-9.323-20.782-20.782s9.323-20.782 20.782-20.782c11.46 0 20.782 9.323 20.782 20.782s-9.322 20.782-20.782 20.782z"/><path d="m239.762 433.615c0-19.724-16.046-35.769-35.769-35.769s-35.769 16.046-35.769 35.769 16.046 35.769 35.769 35.769 35.769-16.046 35.769-35.769zm-56.551 0c0-11.459 9.323-20.782 20.782-20.782 11.46 0 20.782 9.323 20.782 20.782s-9.323 20.782-20.782 20.782c-11.46 0-20.782-9.323-20.782-20.782z"/><path d="m343.777 433.615c0-19.724-16.046-35.769-35.769-35.769s-35.769 16.046-35.769 35.769 16.046 35.769 35.769 35.769 35.769-16.046 35.769-35.769zm-56.552 0c0-11.459 9.323-20.782 20.782-20.782s20.782 9.323 20.782 20.782-9.323 20.782-20.782 20.782-20.782-9.323-20.782-20.782z"/><path d="m447.791 433.615c0-19.724-16.046-35.769-35.769-35.769-19.724 0-35.769 16.046-35.769 35.769s16.046 35.769 35.769 35.769 35.769-16.046 35.769-35.769zm-56.551 0c0-11.459 9.323-20.782 20.782-20.782s20.782 9.323 20.782 20.782-9.323 20.782-20.782 20.782c-11.46 0-20.782-9.323-20.782-20.782z"/><path d="m433.745 355.359h-71.082v-29.711c0-4.139-3.355-7.494-7.494-7.494s-7.494 3.355-7.494 7.494v29.711h-206.274v-205.938c0-.185.151-.337.337-.337h68.892v51.263c0 4.266 2.173 8.14 5.813 10.364 1.953 1.193 4.136 1.794 6.327 1.794 1.892 0 3.789-.448 5.548-1.35l16.221-8.314 16.22 8.314c3.796 1.948 8.235 1.781 11.876-.444 3.64-2.224 5.813-6.098 5.813-10.364v-51.263h68.892c.185 0 .337.151.337.337v141.564c0 4.139 3.355 7.494 7.494 7.494s7.494-3.355 7.494-7.494v-19.103h13.891c9.032 0 16.381-7.348 16.381-16.381v-18.53c0-.577.349-1.103.848-1.279 3.468-1.225 6.907-2.649 10.223-4.231.491-.232 1.097-.111 1.51.302l13.101 13.101c6.387 6.385 16.779 6.385 23.166 0l25.556-25.556c6.387-6.387 6.387-16.78 0-23.167l-13.101-13.1c-.414-.414-.535-1.022-.301-1.511 1.582-3.316 3.005-6.755 4.231-10.222.177-.5.703-.849 1.279-.849h18.53c9.032 0 16.381-7.349 16.381-16.382v-36.142c0-9.032-7.348-16.381-16.381-16.381h-18.53c-.577 0-1.103-.349-1.279-.848-1.226-3.468-2.649-6.907-4.23-10.222-.234-.491-.114-1.098.3-1.511l13.101-13.101c6.387-6.387 6.387-16.78 0-23.167l-25.556-25.556c-6.387-6.385-16.779-6.385-23.166 0l-13.103 13.101c-.414.414-1.022.537-1.512.301-3.312-1.58-6.75-3.002-10.222-4.231-.499-.177-.848-.703-.848-1.279v-18.53c0-9.032-7.349-16.382-16.381-16.382h-36.142c-9.032 0-16.381 7.349-16.381 16.382v18.529c0 .577-.349 1.103-.851 1.28-3.47 1.227-6.908 2.651-10.22 4.231-.49.232-1.097.112-1.511-.302l-13.101-13.101c-6.387-6.385-16.779-6.385-23.166 0l-25.556 25.556c-6.387 6.387-6.387 16.78 0 23.167l13.102 13.101c.413.414.534 1.021.3 1.51-1.58 3.312-3.003 6.75-4.231 10.222-.177.5-.703.849-1.279.849h-18.53c-9.032 0-16.381 7.348-16.381 16.381v16.162h-80.868c-8.45 0-15.324 6.874-15.324 15.324v205.938h-48.158c-43.151.001-78.256 35.106-78.256 78.257s35.105 78.256 78.256 78.256h34.247c4.139 0 7.494-3.355 7.494-7.494s-3.355-7.494-7.494-7.494h-34.247c-34.886 0-63.269-28.382-63.269-63.268s28.382-63.269 63.269-63.269h355.489c34.886 0 63.268 28.382 63.268 63.269 0 34.886-28.382 63.268-63.268 63.268h-286.462c-4.139 0-7.494 3.355-7.494 7.494s3.355 7.494 7.494 7.494h286.462c43.15 0 78.255-35.105 78.255-78.256s-35.105-78.256-78.255-78.256zm-86.406-221.262h-44.353c1.012-29.746 25.509-53.636 55.497-53.636 30.628 0 55.545 24.917 55.545 55.546 0 29.22-22.684 53.225-51.365 55.372v-41.958c0-8.45-6.874-15.324-15.324-15.324zm-109.746-16.162c0-.768.625-1.393 1.394-1.393h18.53c6.925 0 13.117-4.357 15.409-10.84 1.053-2.977 2.273-5.926 3.627-8.764 2.962-6.209 1.665-13.669-3.23-18.562l-13.101-13.101c-.543-.542-.543-1.427 0-1.97l25.556-25.556c.544-.543 1.428-.545 1.971 0l13.102 13.101c4.894 4.894 12.353 6.191 18.561 3.23 2.84-1.354 5.789-2.575 8.764-3.628 6.485-2.291 10.842-8.484 10.842-15.41v-18.531c0-.769.625-1.394 1.393-1.394h36.142c.768 0 1.394.625 1.394 1.394v18.529c0 6.926 4.357 13.119 10.839 15.409 2.977 1.054 5.927 2.274 8.765 3.628 6.208 2.962 13.667 1.665 18.562-3.229l13.101-13.101c.543-.545 1.427-.543 1.971 0l25.556 25.556c.544.543.544 1.428 0 1.97l-13.101 13.101c-4.894 4.893-6.193 12.353-3.23 18.562 1.356 2.842 2.576 5.791 3.627 8.764 2.292 6.484 8.485 10.84 15.41 10.84h18.53c.768 0 1.393.625 1.393 1.393v36.142c0 .769-.625 1.394-1.393 1.394h-18.53c-6.925 0-13.117 4.357-15.41 10.841-1.051 2.972-2.271 5.921-3.627 8.763-2.962 6.208-1.664 13.667 3.23 18.562l13.101 13.101c.544.542.544 1.427 0 1.97l-25.556 25.556c-.543.544-1.427.545-1.971 0l-13.101-13.1c-4.893-4.895-12.353-6.193-18.561-3.231-2.842 1.355-5.791 2.576-8.766 3.627-6.484 2.293-10.84 8.486-10.84 15.41v18.53c0 .768-.625 1.393-1.394 1.393h-13.891v-50.49c36.952-2.172 66.352-32.911 66.352-70.398 0-38.892-31.641-70.533-70.532-70.533-38.251 0-69.466 30.613-70.484 68.623h-50.405v-16.158zm-11.976 31.149h37.842v46.615l-13.38-6.858c-3.468-1.779-7.611-1.78-11.082 0l-13.38 6.858z"/><path d="m207.268 277.202c-6.604 0-11.978 5.373-11.978 11.978v31.986c0 6.604 5.373 11.977 11.978 11.977h74.541c6.604 0 11.978-5.373 11.978-11.977v-31.986c0-6.605-5.373-11.978-11.978-11.978zm71.531 40.953h-68.521v-25.966h68.521z"/></g></g></svg>