<?xml version="1.0" encoding="UTF-8"?><svg id="Capa_1" xmlns="http://www.w3.org/2000/svg" viewBox="0 0 237.75 225.91"><defs><style>.cls-1{stroke-width:18px;}.cls-1,.cls-2,.cls-3{stroke:#000;}.cls-1,.cls-3{fill:none;stroke-linecap:round;stroke-linejoin:round;}.cls-2{stroke-miterlimit:10;}.cls-3{stroke-width:7px;}</style></defs><line class="cls-1" x1="9" y1="133.59" x2="228.75" y2="133.59"/><g><path class="cls-3" d="M12.36,127.87s-1.68-62,55.46-94.12v-15.55h32.35s2.94-14.71,18.7-14.71,17.44,14.29,17.44,14.29l31.51,.42v15.13s54.2,25.21,55.88,94.54c-15.97,.84-209.24,0-209.24,0"/><polygon points="66.98 37.11 63.2 40.05 69.5 100.98 66.98 37.11 66.98 37.11"/><polygon class="cls-2" points="169.5 37.11 173.71 40.47 169.5 108.12 169.5 37.11"/><path class="cls-2" d="M135.47,21.15h2.52s6.54,85.13,7.98,95.8c1.53,11.3-8.97-70.57-10.5-95.8Z"/><path class="cls-2" d="M97.24,21.15h3.78s-7.09,85.78-7.98,96.86c-1.34,16.58,4.2-96.86,4.2-96.86Z"/></g><g><path class="cls-3" d="M37.57,158.12H201.02v32.77l-28.99,31.51h-38.24s-8.4-32.14-14.92-32.14-13.24,32.14-13.24,32.14H62.78l-25.21-32.14v-32.14Z"/><rect class="cls-2" x="204.38" y="164.84" width="3.36" height="21.85"/><rect class="cls-2" x="30.85" y="164.84" width="3.78" height="21.85"/></g></svg>