<?xml version="1.0" encoding="UTF-8"?><svg id="Capa_1" xmlns="http://www.w3.org/2000/svg" viewBox="0 0 239.24 234.31"><defs><style>.cls-1{fill:none;stroke:#050504;stroke-linecap:round;stroke-miterlimit:10;stroke-width:7px;}</style></defs><path class="cls-1" d="M37.83,123.28h0c-4.19,0-7.59-3.4-7.59-7.59v-17.37c0-3.83,2.86-7.07,6.67-7.53l16.99-2.08c.7-.09,1.29-.55,1.54-1.2l5.66-14.62-10.75-12.34c-2.63-3.02-2.46-7.57,.38-10.38l12.99-12.84c2.81-2.78,7.28-2.94,10.28-.37l12.4,10.63,15.69-7.08v-13.66c0-4.19,3.4-7.59,7.59-7.59h17.71c4.19,0,7.59,3.4,7.59,7.59v12.38c0,.16,.1,.31,.25,.38l18.73,8.38c.15,.07,.33,.04,.46-.08l9.49-9.18c3.02-2.92,7.85-2.83,10.76,.21l11.75,12.29c2.89,3.03,2.79,7.82-.23,10.72l-9.71,9.33,7.08,17.3,14.85,.34c4.12,.09,7.42,3.46,7.42,7.59v19.3c0,2.85-1.6,5.47-4.14,6.76l-1.42,.72"/><path class="cls-1" d="M74.26,102.23s5.57-40.48,43.77-40.48,44.27,42.5,44.27,42.5"/><circle class="cls-1" cx="61.64" cy="126.94" r="16.15"/><circle class="cls-1" cx="119.34" cy="112.48" r="16.15"/><circle class="cls-1" cx="176.11" cy="126.94" r="16.15" transform="translate(-8.56 241.07) rotate(-67.5)"/><path class="cls-1" d="M98.55,164.97v50.09h-6.08c-8.11,0-14.68-6.57-14.68-14.68v-32.38c0-16.21,13.14-29.35,29.35-29.35h27.58c12.44,0,22.52,10.08,22.52,22.52v41.24c0,6.99-5.66,12.65-12.65,12.65h-6.07v-52.12"/><path class="cls-1" d="M74.26,215.06h-31.24c-11.53,0-20.87-9.34-20.87-20.87v-16.95c0-11.81,9.57-21.38,21.38-21.38h36.91"/><path class="cls-1" d="M164.98,215.06h31.24c11.53,0,20.87-9.34,20.87-20.87v-16.95c0-11.81-9.57-21.38-21.38-21.38h-36.95"/><line class="cls-1" x1="108.21" y1="215.06" x2="128.7" y2="215.06"/><line class="cls-1" x1="41.88" y1="209.5" x2="41.88" y2="175.33"/><line class="cls-1" x1="197.22" y1="211.03" x2="197.22" y2="176.86"/></svg>