<?xml version="1.0" encoding="UTF-8"?><svg id="Capa_1" xmlns="http://www.w3.org/2000/svg" viewBox="0 0 239.24 234.31"><defs><style>.cls-1{stroke-linecap:round;stroke-linejoin:round;}.cls-1,.cls-2{fill:none;stroke:#020101;stroke-width:7px;}.cls-3{fill:#020101;}</style></defs><path class="cls-1" d="M54.46,8.38H119.94c8.48,0,15.36,6.88,15.36,15.36v52.04c0,18.31-14.86,33.17-33.17,33.17h-29.08c-18.74,0-33.95-15.21-33.95-33.95V23.74c0-8.48,6.88-15.36,15.36-15.36Z"/><path class="cls-1" d="M164.82,225.93H11.22v-80.63c0-15.06,9.15-27.98,22.2-33.49,4.35-1.84,9.13-2.86,14.15-2.86h81.72c19.62,0,35.53,15.91,35.53,35.53v81.45Z"/><path class="cls-1" d="M45.57,186.51h35.48s9.29,4.68,9.29,13.45-9.86,13.45-9.86,13.45H28.18c-9.37,0-16.96-7.59-16.96-16.96v-51.32c0-18.26,14.1-33.14,31.67-33.44l2.68-.05v74.86Z"/><g><polyline class="cls-1" points="88.02 187.33 120.42 170.21 128.62 184.92 90.34 205.1"/><path class="cls-1" d="M123.82,175.11l13.6-7.3c5.43-2.91,12.02-2.64,17.19,.73l12.65,8.24"/><polygon class="cls-2" points="186.93 155.38 201.04 137.78 201.21 160.33 223.63 157.87 207.8 173.93 225.4 188.04 202.85 188.21 205.31 210.63 189.24 194.81 175.14 212.4 174.97 189.85 152.55 192.32 168.37 176.25 150.77 162.14 173.33 161.97 170.86 139.55 186.93 155.38"/></g><path class="cls-2" d="M42.65,35.12h0Z"/><path class="cls-2" d="M42.24,52.61h0Z"/><rect class="cls-3" x="60.96" y="23.09" width="54.11" height="40.45"/></svg>