<svg xmlns="http://www.w3.org/2000/svg" viewBox="0 0 230.09 222.55"><defs><style>.cls-1{fill:none;stroke:#000;stroke-linecap:round;stroke-linejoin:round;stroke-width:7px;}</style></defs><g id="Capa_1" data-name="Capa 1"><path class="cls-1" d="M73,63.17" transform="translate(-12.96 -17.95)"/></g><g id="Capa_2" data-name="Capa 2"><path class="cls-1" d="M117.65,163.22" transform="translate(-12.96 -17.95)"/><rect class="cls-1" x="3.5" y="3.5" width="223.09" height="161.76"/><rect class="cls-1" x="31.85" y="207.28" width="166.39" height="11.76"/><rect class="cls-1" x="89.83" y="165.26" width="50.42" height="42.02"/><polygon class="cls-1" points="87.72 41.9 97.07 50.88 105.68 47.88 105.68 34.79 125.14 34.79 125.14 47.88 134.12 50.88 144.22 42.83 157.32 56.11 149.46 66.22 152.45 73.7 165.92 73.7 165.92 94.28 152.83 94.28 149.83 102.14 158.07 111.87 144.22 127.21 135.24 118.23 126.82 121.6 126.82 134.69 106.06 134.69 105.68 121.6 97.07 118.6 87.72 127.58 73.13 113.36 82.86 103.26 78.74 94.66 64.16 95.4 64.16 74.45 78.74 74.08 82.86 66.22 73.13 56.49 87.72 41.9"/></g></svg>