<svg width="68" height="68" viewBox="0 0 68 68" fill="none" xmlns="http://www.w3.org/2000/svg">
<path d="M33.9998 5.66602C18.3598 5.66602 5.6665 18.3593 5.6665 33.9994C5.6665 49.6394 18.3598 62.3327 33.9998 62.3327C49.6398 62.3327 62.3332 49.6394 62.3332 33.9994C62.3332 18.3593 49.6398 5.66602 33.9998 5.66602ZM33.9998 56.666C21.5048 56.666 11.3332 46.4944 11.3332 33.9994C11.3332 21.5044 21.5048 11.3327 33.9998 11.3327C46.4948 11.3327 56.6665 21.5044 56.6665 33.9994C56.6665 46.4944 46.4948 56.666 33.9998 56.666ZM31.1665 45.3327H36.8332V50.9994H31.1665V45.3327ZM35.7282 17.1127C29.8915 16.2627 24.7348 19.861 23.1765 25.0177C22.6665 26.661 23.9132 28.3327 25.6415 28.3327H26.2082C27.3698 28.3327 28.3048 27.511 28.7015 26.4343C29.6082 23.9127 32.2998 22.1844 35.2182 22.8077C37.9098 23.3743 39.8932 26.0093 39.6665 28.7577C39.3832 32.5543 35.0765 33.376 32.7248 36.9177C32.7248 36.946 32.6965 36.946 32.6965 36.9744C32.6682 37.031 32.6398 37.0594 32.6115 37.116C32.3565 37.541 32.1015 38.0227 31.9032 38.5327C31.8748 38.6177 31.8182 38.6744 31.7898 38.7593C31.7615 38.816 31.7615 38.8727 31.7332 38.9577C31.3932 39.921 31.1665 41.0827 31.1665 42.4994H36.8332C36.8332 41.3094 37.1448 40.3177 37.6265 39.4677C37.6832 39.3827 37.7115 39.2977 37.7682 39.2127C37.9948 38.816 38.2782 38.4477 38.5615 38.1077C38.5898 38.0793 38.6182 38.0227 38.6465 37.9944C38.9298 37.6544 39.2415 37.3427 39.5815 37.031C42.3015 34.4527 45.9848 32.356 45.2198 26.9444C44.5398 22.0144 40.6582 17.8493 35.7282 17.1127Z" fill="black"/>
</svg>
