<?xml version="1.0" encoding="UTF-8"?><svg id="Capa_1" xmlns="http://www.w3.org/2000/svg" viewBox="0 0 239.24 234.31"><defs><style>.cls-1{stroke-linecap:round;stroke-linejoin:round;}.cls-1,.cls-2{fill:none;stroke:#000;stroke-width:7px;}.cls-2{stroke-miterlimit:10;}</style></defs><path class="cls-1" d="M75,84.05V39.35l48.59-8.05,48.43,8.97v43.78s-30.67-18.86-48.52,7.05c-19.52-26.91-48.49-7.05-48.49-7.05Z"/><path class="cls-1" d="M50.35,40.61l24.8,11.06-24.8-11.06Z"/><path class="cls-1" d="M125.28,7.39L49.95,40.77,125.28,7.39Z"/><polyline class="cls-1" points="173.72 52.23 196.61 41.62 198.44 40.77 125.28 7.39"/><path class="cls-2" d="M79.44,81.64v43.1s6.43,25.16,44.78,26.66c38.35,1.5,44.36-26.66,44.36-26.66v-43.1"/><path class="cls-1" d="M15.91,224.45H228.74s1.26-15.74,0-26.5c-2.84-10.17-55.45-22.13-55.45-22.13l-32.09,29.65-14.59-15.07-15.98,14.39-31.83-28.24-2.23-1.21s-60.65,10.93-60.65,22.4v26.72Z"/><polyline class="cls-1" points="172.57 175.32 161.86 161.36 125.29 190.27 87.61 161.36 75.51 175.32"/><line class="cls-1" x1="93.72" y1="144.18" x2="93.72" y2="166.34"/><line class="cls-1" x1="154.78" y1="144.67" x2="154.78" y2="165.36"/><g><polygon class="cls-1" points="204.52 86.56 188.27 86.56 188.27 55.54 196.72 55.54 204.52 55.54 204.52 86.56"/><line class="cls-1" x1="196.64" y1="40.27" x2="196.64" y2="55.05"/></g></svg>