<?xml version="1.0" encoding="UTF-8"?><svg id="Capa_1" xmlns="http://www.w3.org/2000/svg" viewBox="0 0 256 256"><defs><style>.cls-1{fill:none;stroke:#000;stroke-linejoin:round;stroke-width:7px;}</style></defs><polygon class="cls-1" points="71.2 20.8 93.7 88.3 102.7 67.6 134.2 99.1 106.3 32.5 97.3 55 71.2 20.8"/><polygon class="cls-1" points="10.9 78.4 58.6 122.5 55 100.45 92.8 113.5 41.5 72.1 46.9 97.3 10.9 78.4"/><path class="cls-1" d="M168.4,114.84l-2.88-18.36-7.92-4.86v-15.3h24.48l1.8,15.3,12.6,6.3,12.6-11.88,17.28,16.56-9,9.36,5.76,15.12h16.2v27h-15.48l-5.04,11.52,10.08,12.24-18,18-12.42-10.44-11.7,6.48,.36,14.76-26.28,1.44v-15.84l-12.6-4.68-10.08,10.44-19.44-19.08,9-9.72-5.76-11.16-15.12-1.44v-26.28l13.68-.72,5.04-12.78,11.16,12.78,7.92-18.72s3.04,16.81,1.8,18.72c-13.32,20.52,10.08,55.08,42.48,37.44,24.54-16.31,11.52-57.96-20.52-52.2Z"/><polygon class="cls-1" points="35.92 166.24 48.52 156.88 55.36 164.8 63.28 161.56 64.72 152.92 80.2 156.88 77.68 164.44 84.16 169.48 92.8 165.16 102.7 175.96 94.6 182.44 95.68 189.28 106.84 192.88 104.68 207.64 92.8 206.2 89.56 213.76 94.96 219.88 83.44 227.44 77.68 222.4 68.68 222.76 68.68 232.84 51.85 230.68 54.28 223.12 47.08 216.28 39.52 222.04 30.52 210.52 37.36 204.04 36.28 196.12 24.76 195.76 27.28 179.56 38.8 182.44 42.04 175.96 35.92 166.24"/><circle class="cls-1" cx="65.8" cy="194.02" r="15.46"/></svg>