<?xml version="1.0" encoding="utf-8"?>
<!-- Generator: Adobe Illustrator 26.5.0, SVG Export Plug-In . SVG Version: 6.00 Build 0)  -->
<svg version="1.1" id="Capa_1" xmlns="http://www.w3.org/2000/svg" xmlns:xlink="http://www.w3.org/1999/xlink" x="0px" y="0px"
	 viewBox="0 0 239.2 234.3" style="enable-background:new 0 0 239.2 234.3;" xml:space="preserve">
<style type="text/css">
	.st0{fill:none;stroke:#000000;stroke-width:7;stroke-linecap:round;stroke-linejoin:round;}
</style>
<g>
	<g id="Capa_1_1_">
		<path class="st0" d="M63.9,34.7"/>
	</g>
	<path class="st0" d="M108.5,134.8"/>
	<path class="st0" d="M219.4,41.4c5.7,7,5.7,15,5.7,15v150.8H14.4L12.9,56.7c0,0,0.4-10.8,5-15.3"/>
	<g>
		<circle class="st0" cx="119.7" cy="87.7" r="26.6"/>
		<circle class="st0" cx="165.7" cy="133.9" r="17.7"/>
		<circle class="st0" cx="74" cy="133.9" r="17.7"/>
		<path class="st0" d="M36.4,136.2c0,0,7.2,33.5,37.6,33.5s36.1-33.5,36.1-33.5"/>
		<path class="st0" d="M128.8,136.2c0,0,7.2,33.5,37.6,33.5s36.1-33.5,36.1-33.5"/>
		<path class="st0" d="M14.4,32.7c0,0-2.9-7.9,2.2-11.9s11.9,0,11.9,0L86.1,95c0,0,12.6,21.2,31.7,21.2s34.6-20.5,34.6-20.5
			l57.6-72.4c0,0,7-6.4,13.3-1.1c6.3,5.3,1.8,12.2,1.8,12.2L160.8,110c0,0-21.6,23.9-43.2,23.9S76,110.4,76,110.4L14.4,32.7z"/>
		<path class="st0" d="M17.2,132.7h37.1H17.2z"/>
		<path class="st0" d="M186,132.7h35.6H186z"/>
		<polyline class="st0" points="33.7,204.8 33.7,190 207,190 207,207.3 		"/>
		<line class="st0" x1="38" y1="33" x2="200.1" y2="33"/>
	</g>
</g>
</svg>
