<svg id="Capa_1" data-name="Capa 1" xmlns="http://www.w3.org/2000/svg" viewBox="0 0 235.51 226.77"><defs><style>.cls-1{fill:none;stroke:#000;stroke-linecap:round;stroke-linejoin:round;stroke-width:7px;}.cls-2{isolation:isolate;font-size:50px;font-family:DIN-Bold, DIN;font-weight:700;}</style></defs><g id="Capa_1-2" data-name="Capa 1"><path class="cls-1" d="M64.3,48.46" transform="translate(-2 -2)"/></g><path class="cls-1" d="M109,148.51" transform="translate(-2 -2)"/><polyline class="cls-1" points="129.13 21.99 117.8 11.48 99.3 26.19 97.62 3.5 59.38 3.5 56.86 26.19 38.79 11.06 12.74 37.95 27.45 55.6 3.5 58.54 3.5 95.52 26.61 98.04 12.74 116.97 38.79 143.84 56.44 128.29 58.96 151.4 89.21 151.4"/><path class="cls-1" d="M140.17,225.27V207.82s-9.64-31.09-12.25-35.57c-6.3-4.82-8.47-37.06-8.47-37.06s-8.16-13-10-20c3.7-14.45,18.15-8.89,18.15-8.89s13.72,22.61,15.94,25.56c5.93-4.44,1.89-57.06,4.07-72.26s20-9.26,20,0v64.12s13.71-18.17,20.73,4.07c12.24-15.57,24.08-1.12,20.37,8.89,4.08-11.83,28.94-8.48,24.84,7.79,0,6.67-9.27,34.85-9.27,34.85l-8.15,7.05-5.56,20.73-.38,18.15Z" transform="translate(-2 -2)"/><text class="cls-2" transform="translate(36.53 93.69)">EBS</text></svg>