<?xml version="1.0" encoding="utf-8"?>
<!-- Generator: Adobe Illustrator 26.3.1, SVG Export Plug-In . SVG Version: 6.00 Build 0)  -->
<svg version="1.1" id="Capa_1" xmlns="http://www.w3.org/2000/svg" xmlns:xlink="http://www.w3.org/1999/xlink" x="0px" y="0px"
	 viewBox="0 0 256 256" style="enable-background:new 0 0 256 256;" xml:space="preserve">
<style type="text/css">
	.st0{fill:none;stroke:#000000;stroke-width:7;stroke-linejoin:round;stroke-miterlimit:10;}
	.st1{fill:none;stroke:#000000;stroke-width:7;stroke-linecap:round;stroke-linejoin:round;stroke-miterlimit:10;}
</style>
<rect x="12.1" y="10.55" class="st0" width="231.51" height="235.29"/>
<line class="st1" x1="28.91" y1="38.28" x2="97.39" y2="38.28"/>
<g>
	<line class="st1" x1="28.91" y1="70.24" x2="108.32" y2="70.24"/>
	<line class="st1" x1="28.91" y1="92.51" x2="108.32" y2="92.51"/>
	<line class="st1" x1="28.91" y1="114.78" x2="108.32" y2="114.78"/>
	<line class="st1" x1="28.91" y1="137.05" x2="108.32" y2="137.05"/>
</g>
<g>
	<line class="st1" x1="147.13" y1="70.24" x2="226.55" y2="70.24"/>
	<line class="st1" x1="147.13" y1="92.51" x2="226.55" y2="92.51"/>
	<line class="st1" x1="147.13" y1="114.78" x2="226.55" y2="114.78"/>
	<line class="st1" x1="147.13" y1="137.05" x2="226.55" y2="137.05"/>
</g>
<g>
	<line class="st1" x1="109.34" y1="169.02" x2="109.34" y2="221.38"/>
	<line class="st1" x1="96.8" y1="169.02" x2="96.8" y2="221.38"/>
	<line class="st1" x1="84.25" y1="169.02" x2="84.25" y2="221.38"/>
	<line class="st1" x1="71.71" y1="169.02" x2="71.71" y2="221.38"/>
	<line class="st1" x1="59.16" y1="169.02" x2="59.16" y2="221.38"/>
	<line class="st1" x1="46.61" y1="169.02" x2="46.61" y2="221.38"/>
	<g>
		<line class="st1" x1="209.1" y1="169.02" x2="209.1" y2="221.38"/>
		<line class="st1" x1="196.64" y1="169.02" x2="196.64" y2="221.38"/>
		<line class="st1" x1="184.18" y1="169.02" x2="184.18" y2="221.38"/>
		<line class="st1" x1="171.72" y1="169.02" x2="171.72" y2="221.38"/>
		<line class="st1" x1="159.27" y1="169.02" x2="159.27" y2="221.38"/>
		<line class="st1" x1="146.81" y1="169.02" x2="146.81" y2="221.38"/>
		<line class="st1" x1="134.35" y1="169.02" x2="134.35" y2="221.38"/>
		<line class="st1" x1="121.89" y1="169.02" x2="121.89" y2="221.38"/>
	</g>
</g>
</svg>
