<svg xmlns="http://www.w3.org/2000/svg" viewBox="0 0 246.93 248.63"><defs><style>.cls-1{fill:none;stroke:#000;stroke-linecap:round;stroke-linejoin:round;stroke-width:7px;}</style></defs><g id="Capa_1" data-name="Capa 1"><path class="cls-1" d="M73,63.17" transform="translate(-5.27 -0.85)"/><path class="cls-1" d="M83.12,147.63s1.36,12.55-7.54,21.85c-5.62,5.85-15.32,10.41-32,9.71C1.2,177.74,9.69,211.84,9.11,226s0,20.13,22.49,19.23c29.38-1.29,167.25.73,167.25.73s16,1.45,14.88-15.6,14.51-54.43-50.79-52.61c-27.58-1.45-22.86-30.11-22.86-30.11" transform="translate(-5.27 -0.85)"/><polyline class="cls-1" points="72.4 170 95.62 184.51 97.8 191.04 85.1 208.46 51 179.43"/><polyline class="cls-1" points="139.88 170 116.3 184.87 114.13 191.04 127 208.46 162.74 178.34"/><polygon class="cls-1" points="97.8 194.31 114.13 194.31 120.29 204.1 117.75 214.62 97.8 214.62 92.72 204.46 97.8 194.31"/><line class="cls-1" x1="99.53" y1="216.8" x2="89.73" y2="242.2"/><line class="cls-1" x1="115.85" y1="216.8" x2="125.29" y2="244.27"/><path class="cls-1" d="M70.7,105.23s-8.35-14.15,5.08-17.42c18.86,3.63,47.07-26.12,47.07-26.12s7.35,24.67,28.39,25.76c8.22,1.81,0,17.78,0,17.78" transform="translate(-5.27 -0.85)"/><path class="cls-1" d="M66,90.72s-16.33,10.88,4,30.83c25.22,58.48,79.27,30.55,82.35-1.08,3.64-3.85,21-23.22,5.09-29.75" transform="translate(-5.27 -0.85)"/><path class="cls-1" d="M70.33,86.36S66,41.74,99.72,45c30.11-.17,32.57-.17,32.57-.17s29.52,8.52,22.6,41.53" transform="translate(-5.27 -0.85)"/><path class="cls-1" d="M218.73,60.43A25.74,25.74,0,1,1,193,34.7,25.73,25.73,0,0,1,218.73,60.43Z" transform="translate(-5.27 -0.85)"/></g><g id="Capa_2" data-name="Capa 2"><polyline class="cls-1" points="186.95 116.39 198.12 116.42 200.41 100.17 214.18 111.48 235.16 92.28 224.31 78.29 242.25 76.03 243.43 49.09 226.49 46.53 239.76 34.38 219.35 12.07 205.38 22.41 203.81 5.8 175.39 3.5 173.1 20.73 159.62 8.66 142.88 23.98"/></g></svg>