<svg id="Capa_1" data-name="Capa 1" xmlns="http://www.w3.org/2000/svg" viewBox="0 0 199.02 240.61"><defs><style>.cls-1,.cls-2{fill:none;stroke:#000;stroke-width:7px;}.cls-1{stroke-linecap:round;stroke-linejoin:round;}.cls-2{stroke-miterlimit:10;}</style></defs><polygon class="cls-1" points="3.5 123.67 39.21 123.67 53.92 137.11 152.66 137.11 152.66 237.11 3.5 237.11 3.5 123.67"/><path class="cls-2" d="M53.28,203.5h0Z" transform="translate(-27.93 -7.57)"/><path class="cls-2" d="M53.28,220.73h0Z" transform="translate(-27.93 -7.57)"/><path class="cls-2" d="M84.37,220.73h0Z" transform="translate(-27.93 -7.57)"/><polyline class="cls-1" points="11.06 120.43 11.06 108.12 62.11 108.12"/><polyline class="cls-1" points="65.69 133.75 65.69 3.5 195.52 3.5 195.52 169.47 156.44 169.47"/><polyline class="cls-1" points="83.33 76.61 103.5 57.7 120.31 76.61 168.63 30.81"/><polyline class="cls-1" points="150.56 27.03 171.57 27.03 171.57 47.2"/><path class="cls-2" d="M182.69,76.19h0Z" transform="translate(-27.93 -7.57)"/><path class="cls-2" d="M165.46,94.05h0Z" transform="translate(-27.93 -7.57)"/><path class="cls-2" d="M182.69,111.91h0Z" transform="translate(-27.93 -7.57)"/><path class="cls-2" d="M170.08,128h0Z" transform="translate(-27.93 -7.57)"/><path class="cls-2" d="M148,117.84a17.93,17.93,0,1,1-17.93-17.93A17.93,17.93,0,0,1,148,117.84Z" transform="translate(-27.93 -7.57)"/><path class="cls-2" d="M117.38,105.17,130.58,128s7.06-19.52,11.77-22.83" transform="translate(-27.93 -7.57)"/></svg>