<svg width="721" height="450" viewBox="0 0 721 450" fill="none" xmlns="http://www.w3.org/2000/svg">
<rect x="631.333" width="140.024" height="430" rx="70.0118" transform="rotate(50.3942 631.333 0)" fill="#00CDEF"/>
<rect x="331.11" y="67.4844" width="140.024" height="430" rx="70.0118" transform="rotate(50.356 331.11 67.4844)" fill="#FFB53F"/>
<path d="M241.888 323.329C229.706 308.78 220.51 291.975 214.823 273.872C209.136 255.769 207.071 236.723 208.745 217.822C210.418 198.921 215.799 180.534 224.578 163.712C233.358 146.891 245.365 131.963 259.914 119.781C274.462 107.6 291.268 98.4029 309.371 92.7161C327.474 87.0294 346.52 84.964 365.421 86.6379C384.322 88.3117 402.708 93.692 419.53 102.472C436.352 111.251 451.28 123.258 463.462 137.807L352.675 230.568L241.888 323.329Z" fill="#FF1E4E"/>
<path d="M463.584 137.773C475.768 152.32 484.966 169.124 490.655 187.227C496.344 205.329 498.412 224.374 496.741 243.276C495.069 262.177 489.691 280.564 480.914 297.387C472.136 314.21 460.131 329.139 445.584 341.323C431.037 353.506 414.232 362.705 396.13 368.394C378.028 374.083 358.982 376.151 340.081 374.479C321.179 372.808 302.792 367.43 285.969 358.652C269.146 349.875 254.217 337.869 242.034 323.322L352.809 230.547L463.584 137.773Z" fill="#00CDEF"/>
<g filter="url(#filter0_d_6698_343)">
<path d="M314.422 195.24L313.342 206.04C313.342 206.04 296.542 204.12 289.582 204.12C279.502 204.12 274.342 207.72 274.342 214.8C274.342 222.48 278.662 224.28 292.702 228.12C309.982 232.92 316.222 237.48 316.222 251.52C316.222 269.52 304.942 277.32 288.742 277.32C278.062 277.32 261.862 274.08 261.862 274.08L263.182 263.4C263.182 263.4 279.382 265.56 287.902 265.56C298.102 265.56 302.782 261 302.782 252.36C302.782 245.4 299.062 243 286.462 240C268.702 235.44 261.022 230.04 261.022 215.76C261.022 199.2 271.942 192.36 288.382 192.36C298.822 192.36 314.422 195.24 314.422 195.24ZM353.538 250.44H336.738V276H323.418V193.8H353.538C372.258 193.8 381.498 202.92 381.498 221.4C381.498 240 372.258 250.44 353.538 250.44ZM336.738 238.92H353.418C363.378 238.92 367.818 232.8 367.818 221.4C367.818 210.12 363.378 205.32 353.418 205.32H336.738V238.92ZM417.237 250.44H400.437V276H387.117V193.8H417.237C435.957 193.8 445.197 202.92 445.197 221.4C445.197 240 435.957 250.44 417.237 250.44ZM400.437 238.92H417.117C427.077 238.92 431.517 232.8 431.517 221.4C431.517 210.12 427.077 205.32 417.117 205.32H400.437V238.92Z" fill="white"/>
</g>
<defs>
<filter id="filter0_d_6698_343" x="257.022" y="192.359" width="192.174" height="92.9609" filterUnits="userSpaceOnUse" color-interpolation-filters="sRGB">
<feFlood flood-opacity="0" result="BackgroundImageFix"/>
<feColorMatrix in="SourceAlpha" type="matrix" values="0 0 0 0 0 0 0 0 0 0 0 0 0 0 0 0 0 0 127 0" result="hardAlpha"/>
<feOffset dy="4"/>
<feGaussianBlur stdDeviation="2"/>
<feComposite in2="hardAlpha" operator="out"/>
<feColorMatrix type="matrix" values="0 0 0 0 0 0 0 0 0 0 0 0 0 0 0 0 0 0 0.25 0"/>
<feBlend mode="normal" in2="BackgroundImageFix" result="effect1_dropShadow_6698_343"/>
<feBlend mode="normal" in="SourceGraphic" in2="effect1_dropShadow_6698_343" result="shape"/>
</filter>
</defs>
</svg>
