<?xml version="1.0" encoding="UTF-8"?><svg id="Capa_1" xmlns="http://www.w3.org/2000/svg" viewBox="0 0 256 256"><defs><style>.cls-1,.cls-2{stroke:#000;stroke-linejoin:round;stroke-width:7px;}.cls-2{fill:none;}.cls-3{fill:#fff;font-family:BerlinSansFBDemi-Bold, 'Berlin Sans FB Demi';font-size:65px;}</style></defs><path class="cls-2" d="M166.01,103.32l-3.24-20.63-8.9-5.46v-17.19h27.51l2.02,17.19,14.16,7.08,14.16-13.35,19.42,18.61-10.11,10.52,6.47,16.99h18.2v30.34h-17.39l-5.66,12.94,11.33,13.75-20.22,20.22-13.95-11.73-13.15,7.28,.4,16.58-29.53,1.62v-17.8l-14.16-5.26-11.33,11.73-21.84-21.44,10.11-10.92-6.47-12.54-16.99-1.62v-29.53l15.37-.81,5.66-14.36,12.54,14.36,8.9-21.03s3.42,18.89,2.02,21.03c-14.97,23.06,11.33,61.89,47.73,42.07,27.57-18.33,12.94-65.12-23.06-58.65Z"/><g><polygon class="cls-2" points="23.02 173.59 36.76 163.38 44.22 172.02 52.86 168.49 54.43 159.06 71.31 163.38 68.56 171.63 75.63 177.12 85.05 172.41 95.85 184.19 87.02 191.26 88.19 198.72 100.37 202.64 98.01 218.74 85.05 217.17 81.52 225.42 87.41 232.09 74.84 240.34 68.56 234.84 58.75 235.23 58.75 246.23 40.39 243.87 43.04 235.63 35.19 228.17 26.94 234.45 17.13 221.88 24.59 214.82 23.41 206.18 10.85 205.79 13.59 188.12 26.16 191.26 29.69 184.19 23.02 173.59"/><circle class="cls-2" cx="55.61" cy="203.88" r="16.86"/></g><polygon class="cls-1" points="62.3 87.88 19 87.88 40.65 50.38 62.3 12.88 83.95 50.38 105.6 87.88 62.3 87.88"/><text class="cls-3" transform="translate(53.71 79.95)"><tspan x="0" y="0">!</tspan></text></svg>