<?xml version="1.0" encoding="UTF-8"?><svg id="Capa_1" xmlns="http://www.w3.org/2000/svg" viewBox="0 0 239.24 234.31"><defs><style>.cls-1{stroke-linecap:round;stroke-linejoin:round;}.cls-1,.cls-2{fill:none;stroke:#070707;stroke-width:7px;}.cls-2{stroke-miterlimit:10;}</style></defs><g><rect class="cls-2" x="93.5" y="176.56" width="52.74" height="16.75" rx="8.04" ry="8.04"/><rect class="cls-2" x="93.5" y="193.63" width="52.74" height="16.75" rx="8.04" ry="8.04"/><path class="cls-2" d="M105.97,210.62s1.78,13.54,13.9,13.54,14.97-14.61,14.97-14.61"/></g><g><path class="cls-1" d="M122.12,167.98V10.36S48.3,13.95,48.3,85.18c0,51.88,39.9,68.34,39.9,68.34,0,0,1.54,17.04,6.01,24.54"/><polyline class="cls-2" points="130.6 34.8 145.07 16.84 175.5 34.8 167.02 54.75 175.5 71.71 196.94 74.71 196.94 107.13 176.99 107.13 166.52 125.08 172.5 143.54 145.57 160.75 133.6 144.04"/><path class="cls-2" d="M130.6,59.24s22.45,7.22,22.45,30.43-22.45,30.43-22.45,30.43"/><circle class="cls-2" cx="122.12" cy="89.67" r="15.21"/></g></svg>