<?xml version="1.0" encoding="utf-8"?>
<!-- Generator: Adobe Illustrator 26.5.0, SVG Export Plug-In . SVG Version: 6.00 Build 0)  -->
<svg version="1.1" id="gif_regalo_xA0_Imagen_00000000919693006105644120000003478475862096402879_"
	 xmlns="http://www.w3.org/2000/svg" xmlns:xlink="http://www.w3.org/1999/xlink" x="0px" y="0px" viewBox="0 0 144 150.48"
	 style="enable-background:new 0 0 144 150.48;" xml:space="preserve">
<style type="text/css">
	.st0{fill:none;stroke:#020202;stroke-width:7;stroke-linecap:round;stroke-linejoin:round;stroke-miterlimit:10;}
	.st1{fill:none;stroke:#050504;stroke-width:6;stroke-linecap:round;stroke-linejoin:round;stroke-miterlimit:10;}
	.st2{fill:none;stroke:#050504;stroke-width:4;stroke-linecap:round;stroke-linejoin:round;stroke-miterlimit:10;}
	.st3{fill:none;stroke:#050504;stroke-width:3;stroke-linecap:round;stroke-linejoin:round;stroke-miterlimit:10;}
</style>
<g>
	<g>
		<g>
			<path class="st1" d="M47.98,80.96c0,0-8.13,10.39-8.13,14.91S47.98,80.96,47.98,80.96z"/>
		</g>
		<g>
			<path class="st1" d="M93.65,80.96c0,0,6.4,10.39,6.4,14.91S93.65,80.96,93.65,80.96z"/>
		</g>
	</g>
	<path class="st1" d="M15.3,97.43c-5.52,0-2.91,7.32-2.91,7.32l15.11,40.38h85.99l16.85-40.93c0,0,1.09-6.78-4.07-6.78
		C121.12,97.43,20.82,97.43,15.3,97.43z"/>
	<ellipse class="st2" cx="71.13" cy="121.88" rx="9.72" ry="9.13"/>
	<g>
		<rect x="15.82" y="36.02" class="st1" width="9.89" height="25.92"/>
		<rect x="117.57" y="36.02" class="st1" width="9.85" height="25.92"/>
		<ellipse class="st3" cx="58.97" cy="44.48" rx="3.86" ry="3.62"/>
		<ellipse class="st3" cx="82.75" cy="44.48" rx="3.86" ry="3.62"/>
		<path class="st1" d="M25.75,67.78c0,0,0-33.56,0-39.43S35.29,6.48,49.12,6.48s29.59,0,44.53,0c15.66,0.8,23.42,18.13,23.42,21.87
			s0,39.43,0,39.43s-3.87,13.08-14.39,13.08s-49.81,0-61.43,0S25.75,67.78,25.75,67.78z"/>
		<path class="st1" d="M48.05,69.9c-7.94,0-7.94-6.02-7.94-6.02v-26.3c0,0,4.14-15.69,18.36-15.62c10.42,0,14.68,0,26.83,0
			s17.82,15.63,17.82,15.63v26.29c0,0-0.5,6.02-6.45,6.02S55.99,69.9,48.05,69.9z"/>
		<polygon class="st1" points="55.97,25.04 62.21,30.99 78.62,30.99 86.25,25.04 		"/>
	</g>
	<path class="st2" d="M63.21,56.7c0.89,1.03,6.79,8.1,15.79,0"/>
</g>
</svg>
