<svg width="138" height="83" viewBox="0 0 138 83" fill="none" xmlns="http://www.w3.org/2000/svg">
<rect x="60.6165" y="8.55664" width="30.4307" height="78.7203" rx="15.2153" transform="rotate(50.356 60.6165 8.55664)" fill="#FF1E4E"/>
<rect x="118.6" width="30.4307" height="78.7203" rx="15.2153" transform="rotate(50.3942 118.6 0)" fill="#FFB53F"/>
<circle cx="69.4028" cy="41.4001" r="31.4021" fill="#00CDEF"/>
<path d="M57.6174 33.175L57.3924 35.425C57.3924 35.425 53.8924 35.025 52.4424 35.025C50.3424 35.025 49.2674 35.775 49.2674 37.25C49.2674 38.85 50.1674 39.225 53.0924 40.025C56.6924 41.025 57.9924 41.975 57.9924 44.9C57.9924 48.65 55.6424 50.275 52.2674 50.275C50.0424 50.275 46.6674 49.6 46.6674 49.6L46.9424 47.375C46.9424 47.375 50.3174 47.825 52.0924 47.825C54.2174 47.825 55.1924 46.875 55.1924 45.075C55.1924 43.625 54.4174 43.125 51.7924 42.5C48.0924 41.55 46.4924 40.425 46.4924 37.45C46.4924 34 48.7674 32.575 52.1924 32.575C54.3674 32.575 57.6174 33.175 57.6174 33.175ZM69.2666 44.675H65.7666V50H62.9916V32.875H69.2666C73.1666 32.875 75.0916 34.775 75.0916 38.625C75.0916 42.5 73.1666 44.675 69.2666 44.675ZM65.7666 42.275H69.2416C71.3166 42.275 72.2416 41 72.2416 38.625C72.2416 36.275 71.3166 35.275 69.2416 35.275H65.7666V42.275ZM86.0371 44.675H82.5371V50H79.7621V32.875H86.0371C89.9371 32.875 91.8621 34.775 91.8621 38.625C91.8621 42.5 89.9371 44.675 86.0371 44.675ZM82.5371 42.275H86.0121C88.0871 42.275 89.0121 41 89.0121 38.625C89.0121 36.275 88.0871 35.275 86.0121 35.275H82.5371V42.275Z" fill="white"/>
</svg>
