<?xml version="1.0" encoding="UTF-8"?><svg id="Capa_3" xmlns="http://www.w3.org/2000/svg" viewBox="0 0 226 225"><defs><style>.cls-1{stroke-linecap:round;stroke-linejoin:round;}.cls-1,.cls-2{fill:none;stroke:#020202;stroke-width:8px;}.cls-2{stroke-miterlimit:10;}</style></defs><polyline class="cls-1" points="4 40 4 4 44 4"/><polyline class="cls-1" points="19 33 19 18 36 18"/><polyline class="cls-1" points="222 40 222 4 184 4"/><polyline class="cls-1" points="208 34 208 18 191 18"/><polyline class="cls-1" points="185 221 221 221 221 183"/><polyline class="cls-1" points="191 206 207 206 207 191"/><polyline class="cls-1" points="4 184 4 220 42 220"/><polyline class="cls-1" points="19 190 19 205 35 205"/><rect class="cls-1" x="17" y="52" width="194" height="121"/><line class="cls-1" x1="34" y1="67" x2="34" y2="149"/><line class="cls-1" x1="49" y1="67" x2="49" y2="135"/><line class="cls-1" x1="72" y1="67" x2="72" y2="135"/><line class="cls-1" x1="87" y1="67" x2="87" y2="135"/><line class="cls-1" x1="102" y1="67" x2="102" y2="135"/><line class="cls-1" x1="124" y1="67" x2="124" y2="135"/><line class="cls-1" x1="139" y1="67" x2="139" y2="135"/><line class="cls-1" x1="154" y1="67" x2="154" y2="135"/><line class="cls-1" x1="176" y1="67" x2="176" y2="135"/><line class="cls-1" x1="191" y1="67" x2="191" y2="149"/><rect class="cls-2" x="47" y="147" width="3" height="3"/><rect class="cls-2" x="71" y="147" width="3" height="3"/><rect class="cls-2" x="86" y="147" width="3" height="3"/><rect class="cls-2" x="101" y="147" width="3" height="3"/><rect class="cls-2" x="123" y="147" width="3" height="3"/><rect class="cls-2" x="138" y="147" width="3" height="3"/><rect class="cls-2" x="153" y="147" width="3" height="3"/><rect class="cls-2" x="175" y="147" width="3" height="3"/></svg>