<svg width="735" height="525" viewBox="0 0 735 525" fill="none" xmlns="http://www.w3.org/2000/svg">
<path d="M33.9704 106.893C40.4386 106.893 45.6821 101.647 45.6821 95.1763C45.6821 88.7055 40.4386 83.46 33.9704 83.46C27.5021 83.46 22.2586 88.7055 22.2586 95.1763C22.2586 101.647 27.5021 106.893 33.9704 106.893Z" fill="#E6E6E6"/>
<path d="M69.1057 106.893C75.5739 106.893 80.8175 101.647 80.8175 95.1763C80.8175 88.7055 75.5739 83.46 69.1057 83.46C62.6375 83.46 57.3939 88.7055 57.3939 95.1763C57.3939 101.647 62.6375 106.893 69.1057 106.893Z" fill="#E6E6E6"/>
<path d="M104.241 106.893C110.709 106.893 115.953 101.647 115.953 95.1763C115.953 88.7055 110.709 83.46 104.241 83.46C97.7728 83.46 92.5292 88.7055 92.5292 95.1763C92.5292 101.647 97.7728 106.893 104.241 106.893Z" fill="#E6E6E6"/>
<path d="M139.376 106.893C145.845 106.893 151.088 101.647 151.088 95.1763C151.088 88.7055 145.845 83.46 139.376 83.46C132.908 83.46 127.665 88.7055 127.665 95.1763C127.665 101.647 132.908 106.893 139.376 106.893Z" fill="#E6E6E6"/>
<path d="M174.512 106.893C180.98 106.893 186.223 101.647 186.223 95.1763C186.223 88.7055 180.98 83.46 174.512 83.46C168.043 83.46 162.8 88.7055 162.8 95.1763C162.8 101.647 168.043 106.893 174.512 106.893Z" fill="#E6E6E6"/>
<path d="M209.647 106.893C216.115 106.893 221.359 101.647 221.359 95.1763C221.359 88.7055 216.115 83.46 209.647 83.46C203.179 83.46 197.935 88.7055 197.935 95.1763C197.935 101.647 203.179 106.893 209.647 106.893Z" fill="#E6E6E6"/>
<path d="M244.782 106.893C251.251 106.893 256.494 101.647 256.494 95.1763C256.494 88.7055 251.251 83.46 244.782 83.46C238.314 83.46 233.07 88.7055 233.07 95.1763C233.07 101.647 238.314 106.893 244.782 106.893Z" fill="#E6E6E6"/>
<path d="M271.846 109.444H6.90673C5.64314 109.443 4.43173 108.94 3.53824 108.046C2.64475 107.152 2.14214 105.94 2.14066 104.676V85.6766C2.14214 84.4126 2.64475 83.2007 3.53824 82.3068C4.43173 81.413 5.64314 80.9102 6.90673 80.9087H271.846C273.109 80.9102 274.321 81.413 275.214 82.3068C276.108 83.2007 276.611 84.4126 276.612 85.6766V104.676C276.611 105.94 276.108 107.152 275.214 108.046C274.321 108.94 273.109 109.443 271.846 109.444ZM6.90673 82.8159C6.14856 82.8167 5.42168 83.1184 4.88557 83.6547C4.34946 84.191 4.04791 84.9182 4.04708 85.6766V104.676C4.04791 105.435 4.34946 106.162 4.88557 106.698C5.42168 107.234 6.14856 107.536 6.90673 107.537H271.846C272.604 107.536 273.331 107.234 273.867 106.698C274.403 106.162 274.705 105.435 274.706 104.676V85.6766C274.705 84.9182 274.403 84.191 273.867 83.6547C273.331 83.1184 272.604 82.8167 271.846 82.8159L6.90673 82.8159Z" fill="#E6E6E6"/>
<path d="M63.6054 2.73946C64.3314 2.74029 65.0274 3.02918 65.5408 3.54275C66.0541 4.05631 66.3429 4.7526 66.3437 5.47889V64.8426C66.3429 65.5689 66.0541 66.2652 65.5408 66.7787C65.0274 67.2923 64.3314 67.5812 63.6054 67.582H5.47685C4.75085 67.5812 4.05481 67.2923 3.54145 66.7787C3.02809 66.2652 2.73931 65.5689 2.73848 64.8426V5.47894C2.73931 4.75266 3.02809 4.05635 3.54145 3.54279C4.05481 3.02922 4.75085 2.74033 5.47685 2.7395H63.6054V2.73946ZM63.6054 3.93477e-05H5.47685C4.02431 3.93477e-05 2.63126 0.577281 1.60416 1.60478C0.577061 2.63228 3.05176e-05 4.02588 3.05176e-05 5.47898V64.8426C3.05176e-05 66.2957 0.577061 67.6893 1.60416 68.7168C2.63126 69.7443 4.02431 70.3215 5.47685 70.3215H63.6054C65.0579 70.3215 66.451 69.7443 67.4781 68.7168C68.5052 67.6893 69.0822 66.2957 69.0822 64.8426V5.47894C69.0822 4.02584 68.5052 2.63224 67.4781 1.60474C66.451 0.577242 65.0579 2.2797e-06 63.6054 0V3.93477e-05Z" fill="#E6E6E6"/>
<path d="M54.5386 18.3435H15.7557C15.5751 18.3446 15.3962 18.31 15.2291 18.2416C15.062 18.1733 14.9101 18.0726 14.7821 17.9453C14.654 17.818 14.5524 17.6666 14.4831 17.4999C14.4137 17.3331 14.3781 17.1543 14.3781 16.9737C14.3781 16.7932 14.4137 16.6144 14.4831 16.4476C14.5524 16.2809 14.654 16.1295 14.7821 16.0022C14.9101 15.8749 15.062 15.7742 15.2291 15.7059C15.3962 15.6375 15.5751 15.6029 15.7557 15.604H54.5386C54.7191 15.6029 54.898 15.6375 55.0651 15.7059C55.2322 15.7742 55.3841 15.8749 55.5122 16.0022C55.6402 16.1295 55.7418 16.2809 55.8112 16.4476C55.8805 16.6144 55.9162 16.7932 55.9162 16.9737C55.9162 17.1543 55.8805 17.3331 55.8112 17.4999C55.7418 17.6666 55.6402 17.818 55.5122 17.9453C55.3841 18.0726 55.2322 18.1733 55.0651 18.2416C54.898 18.31 54.7191 18.3446 54.5386 18.3435Z" fill="white"/>
<path d="M54.5386 28.0436H15.7557C15.5751 28.0448 15.3962 28.0101 15.2291 27.9418C15.062 27.8735 14.9101 27.7728 14.7821 27.6455C14.654 27.5182 14.5524 27.3668 14.4831 27.2C14.4137 27.0333 14.3781 26.8545 14.3781 26.6739C14.3781 26.4933 14.4137 26.3145 14.4831 26.1478C14.5524 25.9811 14.654 25.8297 14.7821 25.7024C14.9101 25.5751 15.062 25.4744 15.2291 25.4061C15.3962 25.3377 15.5751 25.3031 15.7557 25.3042H54.5386C54.7191 25.3031 54.898 25.3377 55.0651 25.4061C55.2322 25.4744 55.3841 25.5751 55.5122 25.7024C55.6402 25.8297 55.7418 25.9811 55.8112 26.1478C55.8805 26.3145 55.9162 26.4933 55.9162 26.6739C55.9162 26.8545 55.8805 27.0333 55.8112 27.2C55.7418 27.3668 55.6402 27.5182 55.5122 27.6455C55.3841 27.7728 55.2322 27.8735 55.0651 27.9418C54.898 28.0101 54.7191 28.0448 54.5386 28.0436Z" fill="white"/>
<path d="M54.5386 37.7429H15.7557C15.5751 37.744 15.3962 37.7094 15.2291 37.641C15.062 37.5727 14.9101 37.472 14.7821 37.3447C14.654 37.2174 14.5524 37.066 14.4831 36.8993C14.4137 36.7325 14.3781 36.5537 14.3781 36.3732C14.3781 36.1926 14.4137 36.0138 14.4831 35.847C14.5524 35.6803 14.654 35.5289 14.7821 35.4016C14.9101 35.2743 15.062 35.1736 15.2291 35.1053C15.3962 35.0369 15.5751 35.0023 15.7557 35.0034H54.5386C54.7191 35.0023 54.898 35.0369 55.0651 35.1053C55.2322 35.1736 55.3841 35.2743 55.5122 35.4016C55.6402 35.5289 55.7418 35.6803 55.8112 35.847C55.8805 36.0138 55.9162 36.1926 55.9162 36.3732C55.9162 36.5537 55.8805 36.7325 55.8112 36.8993C55.7418 37.066 55.6402 37.2174 55.5122 37.3447C55.3841 37.472 55.2322 37.5727 55.0651 37.641C54.898 37.7094 54.7191 37.744 54.5386 37.7429Z" fill="white"/>
<path d="M54.5386 47.4426H15.7557C15.5751 47.4437 15.3962 47.4091 15.2291 47.3407C15.062 47.2724 14.9101 47.1717 14.7821 47.0444C14.654 46.9171 14.5524 46.7657 14.4831 46.599C14.4137 46.4322 14.3781 46.2534 14.3781 46.0729C14.3781 45.8923 14.4137 45.7135 14.4831 45.5467C14.5524 45.38 14.654 45.2286 14.7821 45.1013C14.9101 44.974 15.062 44.8733 15.2291 44.805C15.3962 44.7366 15.5751 44.702 15.7557 44.7032H54.5386C54.7191 44.702 54.898 44.7366 55.0651 44.805C55.2322 44.8733 55.3841 44.974 55.5122 45.1013C55.6402 45.2286 55.7418 45.38 55.8112 45.5467C55.8805 45.7135 55.9162 45.8923 55.9162 46.0729C55.9162 46.2534 55.8805 46.4322 55.8112 46.599C55.7418 46.7657 55.6402 46.9171 55.5122 47.0444C55.3841 47.1717 55.2322 47.2724 55.0651 47.3407C54.898 47.4091 54.7191 47.4437 54.5386 47.4426Z" fill="white"/>
<path d="M54.5386 57.1423H15.7556C15.3925 57.1423 15.0442 56.998 14.7875 56.7411C14.5307 56.4843 14.3864 56.1359 14.3864 55.7726C14.3864 55.4093 14.5307 55.0609 14.7875 54.804C15.0442 54.5471 15.3925 54.4028 15.7556 54.4028H54.5386C54.9017 54.4028 55.25 54.5471 55.5067 54.804C55.7635 55.0609 55.9078 55.4093 55.9078 55.7726C55.9078 56.1359 55.7635 56.4843 55.5067 56.7411C55.25 56.998 54.9017 57.1423 54.5386 57.1423Z" fill="white"/>
<path d="M262.14 2.73946C262.866 2.74029 263.562 3.02918 264.075 3.54275C264.589 4.05631 264.877 4.7526 264.878 5.47889V64.8426C264.877 65.5689 264.589 66.2652 264.075 66.7787C263.562 67.2923 262.866 67.5812 262.14 67.582H204.011C203.285 67.5812 202.589 67.2923 202.076 66.7787C201.562 66.2652 201.274 65.5689 201.273 64.8426V5.47894C201.274 4.75266 201.562 4.05635 202.076 3.54279C202.589 3.02922 203.285 2.74033 204.011 2.7395H262.14V2.73946ZM262.14 3.93477e-05H204.011C202.559 3.93477e-05 201.166 0.577281 200.139 1.60478C199.111 2.63228 198.534 4.02588 198.534 5.47898V64.8426C198.534 66.2957 199.111 67.6893 200.139 68.7168C201.166 69.7443 202.559 70.3215 204.011 70.3215H262.14C263.592 70.3215 264.985 69.7443 266.012 68.7168C267.04 67.6893 267.617 66.2957 267.617 64.8426V5.47894C267.617 4.02584 267.04 2.63224 266.012 1.60474C264.985 0.577242 263.592 0 262.14 0V3.93477e-05Z" fill="#E6E6E6"/>
<path d="M253.073 18.3435H214.29C214.11 18.3446 213.931 18.31 213.764 18.2416C213.596 18.1733 213.445 18.0726 213.316 17.9453C213.188 17.818 213.087 17.6666 213.017 17.4999C212.948 17.3331 212.912 17.1543 212.912 16.9737C212.912 16.7932 212.948 16.6144 213.017 16.4476C213.087 16.2809 213.188 16.1295 213.316 16.0022C213.445 15.8749 213.596 15.7742 213.764 15.7059C213.931 15.6375 214.11 15.6029 214.29 15.604H253.073C253.435 15.6062 253.781 15.7515 254.036 16.0082C254.291 16.2648 254.434 16.6119 254.434 16.9737C254.434 17.3356 254.291 17.6827 254.036 17.9393C253.781 18.1959 253.435 18.3412 253.073 18.3435H253.073Z" fill="white"/>
<path d="M253.073 28.0436H214.29C214.11 28.0448 213.931 28.0101 213.764 27.9418C213.596 27.8735 213.445 27.7728 213.316 27.6455C213.188 27.5182 213.087 27.3668 213.017 27.2C212.948 27.0333 212.912 26.8545 212.912 26.6739C212.912 26.4933 212.948 26.3145 213.017 26.1478C213.087 25.9811 213.188 25.8297 213.316 25.7024C213.445 25.5751 213.596 25.4744 213.764 25.4061C213.931 25.3377 214.11 25.3031 214.29 25.3042H253.073C253.435 25.3064 253.781 25.4517 254.036 25.7084C254.291 25.965 254.434 26.3121 254.434 26.6739C254.434 27.0358 254.291 27.3829 254.036 27.6395C253.781 27.8961 253.435 28.0414 253.073 28.0436H253.073Z" fill="white"/>
<path d="M253.073 37.7429H214.29C214.11 37.744 213.931 37.7094 213.764 37.641C213.596 37.5727 213.445 37.472 213.316 37.3447C213.188 37.2174 213.087 37.066 213.017 36.8993C212.948 36.7325 212.912 36.5537 212.912 36.3732C212.912 36.1926 212.948 36.0138 213.017 35.847C213.087 35.6803 213.188 35.5289 213.316 35.4016C213.445 35.2743 213.596 35.1736 213.764 35.1053C213.931 35.0369 214.11 35.0023 214.29 35.0034H253.073C253.435 35.0057 253.781 35.1509 254.036 35.4076C254.291 35.6642 254.434 36.0113 254.434 36.3732C254.434 36.735 254.291 37.0821 254.036 37.3387C253.781 37.5954 253.435 37.7407 253.073 37.7429H253.073Z" fill="white"/>
<path d="M253.073 47.4426H214.29C214.11 47.4437 213.931 47.4091 213.764 47.3407C213.596 47.2724 213.445 47.1717 213.316 47.0444C213.188 46.9171 213.087 46.7657 213.017 46.599C212.948 46.4322 212.912 46.2534 212.912 46.0729C212.912 45.8923 212.948 45.7135 213.017 45.5467C213.087 45.38 213.188 45.2286 213.316 45.1013C213.445 44.974 213.596 44.8733 213.764 44.805C213.931 44.7366 214.11 44.702 214.29 44.7032H253.073C253.435 44.7054 253.781 44.8507 254.036 45.1073C254.291 45.3639 254.434 45.711 254.434 46.0729C254.434 46.4347 254.291 46.7818 254.036 47.0384C253.781 47.2951 253.435 47.4404 253.073 47.4426H253.073Z" fill="white"/>
<path d="M253.073 57.1423H214.29C213.927 57.1423 213.579 56.998 213.322 56.7411C213.065 56.4843 212.921 56.1359 212.921 55.7726C212.921 55.4093 213.065 55.0609 213.322 54.804C213.579 54.5471 213.927 54.4028 214.29 54.4028H253.073C253.436 54.4028 253.784 54.5471 254.041 54.804C254.298 55.0609 254.442 55.4093 254.442 55.7726C254.442 56.1359 254.298 56.4843 254.041 56.7411C253.784 56.998 253.436 57.1423 253.073 57.1423H253.073Z" fill="white"/>
<path d="M459.71 116.882C460.436 116.883 461.132 117.172 461.645 117.685C462.159 118.199 462.447 118.895 462.448 119.621V178.985C462.447 179.711 462.159 180.408 461.645 180.921C461.132 181.435 460.436 181.724 459.71 181.725H401.581C400.855 181.724 400.159 181.435 399.646 180.921C399.133 180.408 398.844 179.711 398.843 178.985V119.622C398.844 118.895 399.133 118.199 399.646 117.685C400.159 117.172 400.855 116.883 401.581 116.882H459.71V116.882ZM459.71 114.143H401.581C400.129 114.143 398.736 114.72 397.709 115.747C396.682 116.775 396.104 118.169 396.104 119.622V178.985C396.104 180.438 396.682 181.832 397.709 182.859C398.736 183.887 400.129 184.464 401.581 184.464H459.71C461.162 184.464 462.555 183.887 463.583 182.859C464.61 181.832 465.187 180.438 465.187 178.985V119.622C465.187 118.168 464.61 116.775 463.583 115.747C462.555 114.72 461.162 114.143 459.71 114.143V114.143Z" fill="white"/>
<path d="M450.643 132.486H411.86C411.68 132.487 411.501 132.453 411.334 132.384C411.166 132.316 411.015 132.215 410.887 132.088C410.758 131.961 410.657 131.809 410.588 131.642C410.518 131.476 410.482 131.297 410.482 131.116C410.482 130.936 410.518 130.757 410.588 130.59C410.657 130.423 410.758 130.272 410.887 130.145C411.015 130.018 411.166 129.917 411.334 129.848C411.501 129.78 411.68 129.745 411.86 129.747H450.643C451.005 129.749 451.351 129.894 451.606 130.151C451.861 130.407 452.004 130.755 452.004 131.116C452.004 131.478 451.861 131.825 451.606 132.082C451.351 132.339 451.005 132.484 450.643 132.486Z" fill="white"/>
<path d="M450.643 142.186H411.86C411.497 142.186 411.149 142.042 410.892 141.785C410.635 141.528 410.491 141.18 410.491 140.817C410.491 140.453 410.635 140.105 410.892 139.848C411.149 139.591 411.497 139.447 411.86 139.447H450.643C451.006 139.447 451.354 139.591 451.611 139.848C451.868 140.105 452.012 140.453 452.012 140.817C452.012 141.18 451.868 141.528 451.611 141.785C451.354 142.042 451.006 142.186 450.643 142.186Z" fill="white"/>
<path d="M450.643 151.885H411.86C411.68 151.886 411.501 151.851 411.334 151.783C411.167 151.714 411.015 151.613 410.888 151.486C410.76 151.359 410.658 151.208 410.589 151.041C410.52 150.874 410.484 150.696 410.484 150.515C410.484 150.335 410.52 150.156 410.589 149.989C410.658 149.823 410.76 149.672 410.888 149.544C411.015 149.417 411.167 149.316 411.334 149.248C411.501 149.179 411.68 149.145 411.86 149.146H450.643C451.005 149.148 451.351 149.293 451.606 149.55C451.861 149.806 452.004 150.153 452.004 150.515C452.004 150.877 451.861 151.224 451.606 151.481C451.351 151.737 451.005 151.883 450.643 151.885Z" fill="white"/>
<path d="M450.643 161.585H411.86C411.68 161.586 411.501 161.552 411.334 161.483C411.166 161.415 411.015 161.314 410.887 161.187C410.758 161.06 410.657 160.908 410.588 160.742C410.518 160.575 410.482 160.396 410.482 160.215C410.482 160.035 410.518 159.856 410.588 159.689C410.657 159.523 410.758 159.371 410.887 159.244C411.015 159.117 411.166 159.016 411.334 158.948C411.501 158.879 411.68 158.845 411.86 158.846H450.643C451.005 158.848 451.351 158.993 451.606 159.25C451.861 159.506 452.004 159.854 452.004 160.215C452.004 160.577 451.861 160.924 451.606 161.181C451.351 161.438 451.005 161.583 450.643 161.585Z" fill="white"/>
<path d="M450.643 171.285H411.86C411.68 171.286 411.501 171.251 411.334 171.183C411.166 171.115 411.015 171.014 410.887 170.887C410.758 170.759 410.657 170.608 410.588 170.441C410.518 170.275 410.482 170.096 410.482 169.915C410.482 169.735 410.518 169.556 410.588 169.389C410.657 169.222 410.758 169.071 410.887 168.944C411.015 168.816 411.166 168.716 411.334 168.647C411.501 168.579 411.68 168.544 411.86 168.545H450.643C451.005 168.548 451.351 168.693 451.606 168.95C451.861 169.206 452.004 169.553 452.004 169.915C452.004 170.277 451.861 170.624 451.606 170.881C451.351 171.137 451.005 171.283 450.643 171.285Z" fill="white"/>
<path d="M163.633 70.3216H103.983C102.37 70.3197 100.823 69.6778 99.6824 68.5367C98.5417 67.3956 97.9 65.8485 97.8981 64.2347V21.5348C97.8999 19.921 98.5415 18.3737 99.6822 17.2324C100.823 16.0912 102.369 15.4492 103.983 15.4473H163.633C165.247 15.449 166.793 16.091 167.934 17.2322C169.075 18.3735 169.717 19.9208 169.718 21.5348V64.2347C169.717 65.8486 169.075 67.3958 167.934 68.5369C166.793 69.678 165.246 70.3199 163.633 70.3216ZM103.983 18.1867C103.095 18.1878 102.245 18.541 101.618 19.1686C100.99 19.7963 100.637 20.6473 100.637 21.5348V64.2347C100.638 65.1222 100.99 65.9731 101.618 66.6007C102.245 67.2282 103.096 67.5812 103.983 67.5822H163.633C164.52 67.5812 165.371 67.2283 165.999 66.6007C166.626 65.9732 166.979 65.1223 166.98 64.2347V21.5348C166.979 20.6472 166.626 19.7962 165.999 19.1686C165.371 18.5409 164.521 18.1878 163.633 18.1867H103.983Z" fill="#E6E6E6"/>
<path d="M153.2 34.5544H114.417C114.055 34.5522 113.709 34.4069 113.454 34.1503C113.199 33.8936 113.056 33.5465 113.056 33.1847C113.056 32.8229 113.199 32.4757 113.454 32.2191C113.709 31.9625 114.055 31.8172 114.417 31.815H153.2C153.38 31.8139 153.559 31.8485 153.726 31.9168C153.893 31.9852 154.045 32.0859 154.173 32.2132C154.301 32.3405 154.403 32.4918 154.472 32.6586C154.542 32.8253 154.577 33.0041 154.577 33.1847C154.577 33.3653 154.542 33.5441 154.472 33.7108C154.403 33.8775 154.301 34.0289 154.173 34.1562C154.045 34.2835 153.893 34.3842 153.726 34.4526C153.559 34.5209 153.38 34.5555 153.2 34.5544Z" fill="white"/>
<path d="M153.2 44.2546H114.417C114.055 44.2524 113.709 44.1071 113.454 43.8504C113.199 43.5938 113.056 43.2467 113.056 42.8849C113.056 42.5231 113.199 42.1759 113.454 41.9193C113.709 41.6627 114.055 41.5174 114.417 41.5152H153.2C153.38 41.5141 153.559 41.5487 153.726 41.617C153.893 41.6853 154.045 41.7861 154.173 41.9134C154.301 42.0407 154.403 42.192 154.472 42.3588C154.542 42.5255 154.577 42.7043 154.577 42.8849C154.577 43.0655 154.542 43.2443 154.472 43.411C154.403 43.5777 154.301 43.7291 154.173 43.8564C154.045 43.9837 153.893 44.0844 153.726 44.1528C153.559 44.2211 153.38 44.2557 153.2 44.2546Z" fill="white"/>
<path d="M153.2 53.9538H114.417C114.055 53.9516 113.709 53.8063 113.454 53.5497C113.199 53.293 113.056 52.9459 113.056 52.5841C113.056 52.2223 113.199 51.8752 113.454 51.6185C113.709 51.3619 114.055 51.2166 114.417 51.2144H153.2C153.38 51.2133 153.559 51.2479 153.726 51.3162C153.893 51.3846 154.045 51.4853 154.173 51.6126C154.301 51.7399 154.403 51.8912 154.472 52.058C154.542 52.2247 154.577 52.4035 154.577 52.5841C154.577 52.7647 154.542 52.9435 154.472 53.1102C154.403 53.2769 154.301 53.4283 154.173 53.5556C154.045 53.6829 153.893 53.7836 153.726 53.852C153.559 53.9203 153.38 53.9549 153.2 53.9538Z" fill="white"/>
<path d="M361.564 93.9826L304.274 77.362C302.725 76.9107 301.418 75.8633 300.64 74.4495C299.862 73.0357 299.677 71.371 300.124 69.8206L312.013 28.8104C312.464 27.2609 313.511 25.9536 314.924 25.1753C316.337 24.3971 318.002 24.2114 319.551 24.6591L376.842 41.2797C378.391 41.731 379.697 42.7785 380.475 44.1924C381.253 45.6064 381.439 47.2713 380.991 48.8219L369.103 89.8321C368.652 91.3816 367.604 92.6888 366.191 93.4669C364.778 94.245 363.114 94.4305 361.564 93.9826ZM318.789 27.2901C317.936 27.044 317.021 27.1461 316.244 27.5742C315.467 28.0022 314.891 28.7212 314.643 29.5734L302.754 70.5836C302.508 71.4363 302.61 72.3518 303.038 73.1293C303.466 73.9068 304.184 74.4828 305.036 74.7309L362.326 91.3516C363.179 91.5979 364.094 91.4959 364.871 91.068C365.649 90.6401 366.225 89.9213 366.473 89.0691L378.361 48.0589C378.607 47.2061 378.505 46.2904 378.077 45.5128C377.649 44.7352 376.931 44.159 376.079 43.9108L318.789 27.2901Z" fill="#E6E6E6"/>
<path d="M361.501 56.7241L324.253 45.9179C323.905 45.8162 323.611 45.5804 323.437 45.2624C323.262 44.9444 323.221 44.5701 323.322 44.2216C323.423 43.8732 323.658 43.5791 323.975 43.4038C324.293 43.2286 324.667 43.1865 325.016 43.2869L362.264 54.0931C362.613 54.1943 362.907 54.4299 363.082 54.7481C363.257 55.0664 363.299 55.4412 363.198 55.7901C363.096 56.139 362.861 56.4334 362.543 56.6086C362.225 56.7838 361.85 56.8253 361.501 56.7241H361.501Z" fill="white"/>
<path d="M358.801 66.0403L321.552 55.2341C321.38 55.184 321.218 55.1004 321.078 54.988C320.938 54.8756 320.821 54.7366 320.734 54.579C320.647 54.4214 320.593 54.2483 320.573 54.0695C320.553 53.8907 320.569 53.7098 320.619 53.5371C320.669 53.3643 320.752 53.2031 320.865 53.0627C320.977 52.9222 321.116 52.8053 321.273 52.7186C321.431 52.6318 321.604 52.577 321.783 52.5572C321.961 52.5373 322.142 52.5529 322.315 52.603L359.563 63.4093C359.911 63.511 360.205 63.7467 360.38 64.0648C360.554 64.3828 360.595 64.7571 360.494 65.1055C360.393 65.454 360.158 65.7481 359.841 65.9234C359.523 66.0986 359.149 66.1407 358.801 66.0403Z" fill="white"/>
<path d="M356.1 75.3555L318.852 64.5493C318.504 64.4475 318.21 64.2118 318.036 63.8938C317.861 63.5757 317.82 63.2014 317.921 62.853C318.022 62.5045 318.257 62.2104 318.574 62.0352C318.892 61.8599 319.266 61.8178 319.615 61.9182L356.863 72.7244C357.212 72.8256 357.506 73.0612 357.681 73.3795C357.856 73.6977 357.898 74.0726 357.797 74.4215C357.695 74.7704 357.46 75.0648 357.142 75.2399C356.824 75.4151 356.449 75.4567 356.1 75.3555Z" fill="white"/>
<path d="M735 522.421H134.131V525H735V522.421Z" fill="#E6E6E6"/>
<path d="M483.007 518.39H385.296L388.608 475.315H479.694L483.007 518.39Z" fill="#E6E6E6"/>
<path d="M489.631 513.42H380.328V523.36H489.631V513.42Z" fill="#E6E6E6"/>
<path d="M621.291 197.81H247.84C245.204 197.81 242.677 198.857 240.813 200.721C238.95 202.585 237.903 205.114 237.903 207.75V435.553H631.228V207.75C631.228 206.445 630.971 205.152 630.471 203.946C629.972 202.74 629.24 201.644 628.317 200.721C627.395 199.798 626.299 199.066 625.094 198.566C623.888 198.067 622.596 197.81 621.291 197.81H621.291Z" fill="#3F3D56"/>
<path d="M237.903 435.553V472.83C237.903 474.135 238.16 475.428 238.659 476.634C239.159 477.84 239.891 478.936 240.813 479.859C241.736 480.782 242.831 481.514 244.037 482.013C245.243 482.513 246.535 482.77 247.84 482.77H621.291C623.926 482.77 626.454 481.723 628.317 479.859C630.181 477.994 631.228 475.466 631.228 472.83V435.553H237.903Z" fill="#E6E6E6"/>
<path d="M612.182 218.519H257.776V417.329H612.182V218.519Z" fill="#919493"/>
<path d="M434.979 468.688C440.467 468.688 444.916 464.237 444.916 458.747C444.916 453.257 440.467 448.807 434.979 448.807C429.491 448.807 425.043 453.257 425.043 458.747C425.043 464.237 429.491 468.688 434.979 468.688Z" fill="#3F3D56"/>
<path d="M268.827 226.916C269.868 226.916 270.712 226.071 270.712 225.03C270.712 223.988 269.868 223.143 268.827 223.143C267.785 223.143 266.941 223.988 266.941 225.03C266.941 226.071 267.785 226.916 268.827 226.916Z" fill="white"/>
<path d="M275.984 226.916C277.026 226.916 277.87 226.071 277.87 225.03C277.87 223.988 277.026 223.143 275.984 223.143C274.943 223.143 274.099 223.988 274.099 225.03C274.099 226.071 274.943 226.916 275.984 226.916Z" fill="white"/>
<path d="M283.142 226.916C284.184 226.916 285.028 226.071 285.028 225.03C285.028 223.988 284.184 223.143 283.142 223.143C282.101 223.143 281.256 223.988 281.256 225.03C281.256 226.071 282.101 226.916 283.142 226.916Z" fill="white"/>
<path d="M601.968 231.44H266.941V398.408H601.968V231.44Z" fill="white"/>
<path d="M289.211 256.836C288.897 256.837 288.596 256.962 288.374 257.184C288.152 257.406 288.027 257.707 288.027 258.021V317.912C288.027 318.226 288.152 318.527 288.374 318.75C288.596 318.972 288.897 319.097 289.211 319.097H358.349C358.663 319.097 358.964 318.972 359.186 318.75C359.408 318.527 359.533 318.226 359.533 317.912V258.021C359.533 257.707 359.408 257.406 359.186 257.184C358.964 256.962 358.663 256.837 358.349 256.836H289.211Z" fill="#919493"/>
<path d="M400.22 257.029C399.906 257.03 399.605 257.154 399.383 257.377C399.161 257.599 399.036 257.9 399.035 258.214V317.912C399.036 318.226 399.161 318.528 399.383 318.75C399.605 318.972 399.906 319.097 400.22 319.097H469.137C469.451 319.097 469.752 318.972 469.974 318.75C470.196 318.527 470.321 318.226 470.321 317.912V258.214C470.321 257.9 470.196 257.599 469.974 257.377C469.752 257.155 469.451 257.03 469.137 257.029H400.22Z" fill="#919493"/>
<path d="M510.065 256.403C509.751 256.404 509.45 256.529 509.228 256.751C509.006 256.973 508.881 257.274 508.881 257.588V317.912C508.881 318.226 509.006 318.527 509.228 318.749C509.45 318.972 509.751 319.097 510.065 319.097H579.698C580.012 319.097 580.313 318.972 580.535 318.749C580.757 318.527 580.882 318.226 580.882 317.912V257.588C580.882 257.274 580.757 256.973 580.535 256.751C580.313 256.529 580.012 256.404 579.698 256.403H510.065Z" fill="#919493"/>
<path d="M290.475 348.743C289.827 348.744 289.205 349.003 288.747 349.462C288.289 349.921 288.031 350.543 288.031 351.192C288.031 351.841 288.289 352.464 288.747 352.923C289.205 353.382 289.827 353.641 290.475 353.642H355.478C356.127 353.641 356.748 353.382 357.207 352.923C357.665 352.464 357.922 351.841 357.922 351.192C357.922 350.543 357.665 349.921 357.207 349.462C356.748 349.003 356.127 348.744 355.478 348.743H290.475Z" fill="#919493"/>
<path d="M290.475 360.395C289.827 360.396 289.205 360.654 288.747 361.114C288.289 361.573 288.031 362.195 288.031 362.844C288.031 363.493 288.289 364.116 288.747 364.575C289.205 365.034 289.827 365.293 290.475 365.294H319.742C320.391 365.293 321.013 365.034 321.471 364.575C321.929 364.116 322.187 363.493 322.187 362.844C322.187 362.195 321.929 361.573 321.471 361.114C321.013 360.654 320.391 360.396 319.742 360.395H290.475Z" fill="#3F3D56"/>
<path d="M402.677 348.743C402.028 348.744 401.407 349.003 400.948 349.462C400.49 349.921 400.233 350.543 400.233 351.192C400.233 351.841 400.49 352.464 400.948 352.923C401.407 353.382 402.028 353.641 402.677 353.642H467.68C468.328 353.641 468.95 353.382 469.408 352.923C469.866 352.464 470.124 351.841 470.124 351.192C470.124 350.543 469.866 349.921 469.408 349.462C468.95 349.003 468.328 348.744 467.68 348.743H402.677Z" fill="#919493"/>
<path d="M402.677 360.395C402.028 360.396 401.407 360.654 400.948 361.114C400.49 361.573 400.233 362.195 400.233 362.844C400.233 363.493 400.49 364.116 400.948 364.575C401.407 365.034 402.028 365.293 402.677 365.294H431.944C432.593 365.293 433.215 365.034 433.673 364.575C434.131 364.116 434.389 363.493 434.389 362.844C434.389 362.195 434.131 361.573 433.673 361.114C433.215 360.654 432.593 360.396 431.944 360.395H402.677Z" fill="#3F3D56"/>
<path d="M512.074 348.743C511.425 348.744 510.804 349.003 510.346 349.462C509.887 349.921 509.63 350.543 509.63 351.192C509.63 351.841 509.887 352.464 510.346 352.923C510.804 353.382 511.425 353.641 512.074 353.642H577.077C577.725 353.641 578.347 353.382 578.805 352.923C579.264 352.464 579.521 351.841 579.521 351.192C579.521 350.543 579.264 349.921 578.805 349.462C578.347 349.003 577.725 348.744 577.077 348.743H512.074Z" fill="#919493"/>
<path d="M290.475 336.708C289.827 336.71 289.205 336.968 288.747 337.428C288.289 337.887 288.031 338.509 288.031 339.158C288.031 339.807 288.289 340.429 288.747 340.889C289.205 341.348 289.827 341.607 290.475 341.608H355.478C356.127 341.607 356.748 341.348 357.207 340.889C357.665 340.429 357.922 339.807 357.922 339.158C357.922 338.509 357.665 337.887 357.207 337.428C356.748 336.968 356.127 336.71 355.478 336.708H290.475Z" fill="#919493"/>
<path d="M402.677 336.708C402.028 336.71 401.407 336.968 400.948 337.428C400.49 337.887 400.233 338.509 400.233 339.158C400.233 339.807 400.49 340.429 400.948 340.889C401.407 341.348 402.028 341.607 402.677 341.608H467.68C468.328 341.607 468.95 341.348 469.408 340.889C469.866 340.429 470.124 339.807 470.124 339.158C470.124 338.509 469.866 337.887 469.408 337.428C468.95 336.968 468.328 336.71 467.68 336.708H402.677Z" fill="#919493"/>
<path d="M512.074 336.708C511.425 336.71 510.804 336.968 510.346 337.428C509.887 337.887 509.63 338.509 509.63 339.158C509.63 339.807 509.887 340.429 510.346 340.889C510.804 341.348 511.425 341.607 512.074 341.608H577.077C577.725 341.607 578.347 341.348 578.805 340.889C579.264 340.429 579.521 339.807 579.521 339.158C579.521 338.509 579.264 337.887 578.805 337.428C578.347 336.968 577.725 336.71 577.077 336.708H512.074Z" fill="#919493"/>
<path d="M512.074 360.395C511.425 360.396 510.804 360.654 510.346 361.114C509.887 361.573 509.63 362.195 509.63 362.844C509.63 363.493 509.887 364.116 510.346 364.575C510.804 365.034 511.425 365.293 512.074 365.294H541.341C541.99 365.293 542.611 365.034 543.07 364.575C543.528 364.116 543.785 363.493 543.785 362.844C543.785 362.195 543.528 361.573 543.07 361.114C542.611 360.654 541.99 360.396 541.341 360.395H512.074Z" fill="#3F3D56"/>
</svg>
