<svg width="803" height="259" viewBox="0 0 803 259" fill="none" xmlns="http://www.w3.org/2000/svg">
<g clip-path="url(#clip0_137:795)">
<path d="M781.256 232H751.744C751.078 231.998 750.42 232.142 749.816 232.422C749.211 232.701 748.675 233.109 748.245 233.617C747.157 233.417 746.036 233.478 744.976 233.795C743.915 234.112 742.945 234.676 742.145 235.441C741.345 236.205 740.737 237.149 740.372 238.194C740.007 239.239 739.896 240.355 740.046 241.452C740.196 242.548 740.604 243.593 741.237 244.501C741.87 245.41 742.709 246.155 743.685 246.676C744.661 247.197 745.747 247.479 746.854 247.499C747.961 247.519 749.056 247.276 750.051 246.79L752.499 254.745C752.789 255.687 753.373 256.512 754.166 257.098C754.96 257.684 755.92 258 756.906 258H776.094C777.08 258 778.041 257.684 778.834 257.098C779.627 256.512 780.212 255.687 780.501 254.745L785.664 237.968C785.876 237.278 785.924 236.548 785.802 235.837C785.681 235.125 785.395 234.452 784.966 233.872C784.537 233.291 783.978 232.82 783.334 232.495C782.69 232.169 781.978 232 781.256 232ZM747 245.5C745.674 245.5 744.402 244.973 743.464 244.036C742.527 243.098 742 241.826 742 240.5C742 239.174 742.527 237.902 743.464 236.964C744.402 236.027 745.674 235.5 747 235.5C747.091 235.5 747.176 235.522 747.267 235.527C747.068 236.332 747.092 237.176 747.336 237.968L749.448 244.832C748.704 245.265 747.86 245.495 747 245.5Z" fill="#F0F0F0"/>
<path d="M62.2564 211H32.7437C32.0779 210.998 31.4199 211.142 30.8155 211.422C30.2112 211.701 29.6753 212.109 29.2451 212.617C28.1566 212.417 27.0361 212.478 25.9757 212.795C24.9153 213.112 23.9451 213.676 23.1449 214.441C22.3447 215.205 21.7372 216.149 21.3723 217.194C21.0074 218.239 20.8956 219.355 21.0459 220.452C21.1962 221.548 21.6044 222.593 22.237 223.501C22.8696 224.41 23.7085 225.155 24.685 225.676C25.6614 226.197 26.7475 226.479 27.8541 226.499C28.9607 226.519 30.0562 226.276 31.0508 225.79L34.4985 254.745C34.7885 255.687 35.3731 256.512 36.1664 257.098C36.9597 257.684 37.92 258 38.9063 258H58.0942C59.0804 258 60.0406 257.684 60.8338 257.098C61.6271 256.512 62.2115 255.687 62.5015 254.745L66.6641 216.968C66.8762 216.278 66.9236 215.548 66.8023 214.837C66.681 214.125 66.3945 213.452 65.9658 212.872C65.537 212.291 64.9781 211.82 64.3338 211.495C63.6896 211.169 62.978 211 62.2564 211ZM28 224.5C26.6739 224.5 25.4022 223.973 24.4645 223.036C23.5268 222.098 23 220.826 23 219.5C23 218.174 23.5268 216.902 24.4645 215.964C25.4022 215.027 26.6739 214.5 28 214.5C28.0913 214.5 28.1763 214.522 28.2666 214.527C28.0677 215.332 28.0919 216.176 28.3364 216.968L30.4482 223.832C29.7043 224.265 28.8603 224.495 28 224.5Z" fill="#F0F0F0"/>
<path d="M410.914 187C410.914 185.418 410.445 183.871 409.566 182.555C408.687 181.24 407.437 180.214 405.975 179.609C404.514 179.003 402.905 178.845 401.353 179.154C399.801 179.462 398.376 180.224 397.257 181.343C396.138 182.462 395.376 183.887 395.068 185.439C394.759 186.991 394.917 188.6 395.523 190.061C396.128 191.523 397.154 192.773 398.469 193.652C399.785 194.531 401.332 195 402.914 195C403.014 195 403.11 194.989 403.209 194.985C405.187 201.415 406.244 208.093 406.348 214.82C406.424 218.173 406.232 221.528 405.775 224.851C405.427 227.208 404.777 229.914 402.436 231.015C400.69 231.836 402.211 234.424 403.95 233.605C406.59 232.363 407.874 229.579 408.45 226.858C409.107 223.35 409.409 219.784 409.353 216.215C409.384 208.796 408.301 201.415 406.139 194.318C407.559 193.693 408.766 192.668 409.614 191.369C410.462 190.069 410.914 188.552 410.914 187Z" fill="#E6E6E6"/>
<path d="M408.47 235.207C408.47 235.207 397.743 208.803 429.923 189L408.47 235.207Z" fill="#E6E6E6"/>
<path d="M407.895 234.727C407.895 234.727 404.623 215.907 379.296 216.068L407.895 234.727Z" fill="#E6E6E6"/>
<path d="M425.84 257.84H381.86C381.016 257.84 380.19 257.603 379.474 257.155C378.759 256.708 378.184 256.068 377.815 255.309L368.239 235.626C367.906 234.941 367.752 234.181 367.792 233.42C367.833 232.658 368.066 231.919 368.471 231.273C368.875 230.626 369.437 230.093 370.105 229.724C370.772 229.354 371.522 229.16 372.284 229.16H435.416C436.178 229.16 436.928 229.354 437.595 229.724C438.262 230.093 438.825 230.626 439.229 231.273C439.634 231.919 439.867 232.658 439.908 233.42C439.948 234.181 439.794 234.941 439.461 235.626L429.885 255.309C429.516 256.068 428.941 256.708 428.226 257.155C427.51 257.603 426.684 257.84 425.84 257.84Z" fill="#F0F0F0"/>
<path d="M802 259H1C0.734784 259 0.480429 258.895 0.292892 258.707C0.105356 258.52 0 258.265 0 258C0 257.735 0.105356 257.48 0.292892 257.293C0.480429 257.105 0.734784 257 1 257H802C802.265 257 802.52 257.105 802.707 257.293C802.895 257.48 803 257.735 803 258C803 258.265 802.895 258.52 802.707 258.707C802.52 258.895 802.265 259 802 259Z" fill="#3F3D56"/>
<path d="M167.075 200.927L147.64 127.442L145.39 118.959L147.5 117L183.722 99.0552L235.482 100.344L265.869 115.944L266.033 127.442L267.533 231.033L273.595 256.46H162.419L171.051 215.964L167.075 200.927Z" fill="#9E616A"/>
<path d="M294.929 256.46H265.955L257.956 198.7L260.05 127.442L260.338 117.748L265.869 115.943C270.038 118.988 273.484 122.914 275.962 127.442C279.516 133.629 282.469 142.495 281.735 154.416C281.735 154.416 282.391 168.492 281.766 177.866C281.336 184.272 288.812 224.76 294.929 256.46Z" fill="#BDAAAD"/>
<path d="M167.176 200.192L167.075 200.927L159.388 256.46H126.071C128.743 224.995 131.883 185.655 131.461 179.351C130.837 169.985 131.493 155.9 131.493 155.9C130.696 142.988 134.235 133.676 138.164 127.442C140.141 124.273 142.576 121.415 145.39 118.959C146.014 118.411 146.671 117.902 147.358 117.436L152.889 119.232L154.334 127.442L167.176 200.192Z" fill="#BDAAAD"/>
<path d="M171.017 50.7663C171.017 57.8626 173.121 64.7996 177.064 70.6999C181.006 76.6003 186.61 81.199 193.166 83.9147C199.722 86.6303 206.936 87.3408 213.896 85.9564C220.856 84.572 227.249 81.1548 232.267 76.137C237.285 71.1191 240.702 64.726 242.086 57.7661C243.471 50.8062 242.76 43.592 240.045 37.0358C237.329 30.4797 232.73 24.8761 226.83 20.9336C220.93 16.9911 213.993 14.8868 206.896 14.8868C197.404 14.8631 188.291 18.6111 181.563 25.3063C174.834 32.0015 171.041 41.0954 171.017 50.5875C171.017 50.6471 171.017 50.7067 171.017 50.7663Z" fill="#FFB7B7"/>
<path d="M323 263.296C323 265.344 322.186 267.308 320.738 268.756C319.29 270.204 317.326 271.018 315.278 271.018H108.722C106.674 271.018 104.71 270.204 103.262 268.756C101.814 267.308 101 265.344 101 263.296C101 261.248 101.814 259.284 103.262 257.836C104.71 256.388 106.674 255.574 108.722 255.574H111.014C110.883 255.114 110.815 254.638 110.812 254.16V148.706C110.812 146.928 111.518 145.222 112.776 143.964C114.033 142.707 115.739 142 117.518 142H306.482C308.261 142 309.967 142.707 311.224 143.964C312.482 145.222 313.188 146.928 313.188 148.706V254.16C313.189 254.639 313.121 255.115 312.986 255.574H315.278C316.292 255.574 317.296 255.774 318.233 256.162C319.17 256.55 320.021 257.119 320.738 257.836C321.455 258.553 322.024 259.404 322.412 260.341C322.8 261.278 323 262.282 323 263.296Z" fill="#3F3D56"/>
<path d="M214.5 189.671C212.14 189.671 209.832 188.971 207.869 187.659C205.906 186.348 204.376 184.484 203.473 182.303C202.569 180.121 202.333 177.721 202.794 175.406C203.254 173.091 204.391 170.964 206.06 169.295C207.729 167.625 209.856 166.488 212.172 166.028C214.487 165.567 216.887 165.803 219.068 166.707C221.249 167.61 223.113 169.14 224.425 171.103C225.737 173.066 226.437 175.374 226.437 177.734C226.433 180.899 225.175 183.933 222.937 186.171C220.699 188.409 217.665 189.667 214.5 189.671ZM214.5 167.798C212.535 167.798 210.614 168.381 208.98 169.473C207.346 170.565 206.073 172.117 205.321 173.932C204.568 175.748 204.372 177.746 204.755 179.673C205.139 181.601 206.085 183.371 207.475 184.761C208.864 186.15 210.635 187.097 212.562 187.48C214.49 187.863 216.488 187.667 218.303 186.914C220.119 186.162 221.671 184.889 222.762 183.255C223.854 181.621 224.437 179.7 224.437 177.734C224.434 175.1 223.386 172.575 221.523 170.712C219.66 168.849 217.135 167.801 214.5 167.798Z" fill="white"/>
<path d="M210.5 184.671C216.54 184.671 221.437 179.775 221.437 173.735C221.437 167.695 216.54 162.798 210.5 162.798C204.46 162.798 199.564 167.695 199.564 173.735C199.564 179.775 204.46 184.671 210.5 184.671Z" fill="white"/>
<path d="M546 81.6812V60.5C546 47.7696 551.057 35.5606 560.059 26.5589C569.061 17.5571 581.27 12.5 594 12.5C606.73 12.5 618.939 17.5571 627.941 26.5589C636.943 35.5606 642 47.7696 642 60.5V81.6812C641.997 84.5495 640.856 87.2994 638.828 89.3276C636.799 91.3559 634.049 92.4967 631.181 92.5H566.3L561 81.2368V92.5H556.819C553.951 92.4967 551.201 91.3559 549.172 89.3276C547.144 87.2994 546.003 84.5495 546 81.6812Z" fill="#2F2E41"/>
<path d="M595.942 93.6617C613.324 93.6617 627.414 79.5713 627.414 62.19C627.414 44.8086 613.324 30.7183 595.942 30.7183C578.561 30.7183 564.47 44.8086 564.47 62.19C564.47 79.5713 578.561 93.6617 595.942 93.6617Z" fill="#FFB7B7"/>
<path d="M637.904 114.643L643.627 112.736C643.627 112.736 655.071 117.504 655.071 126.087C655.071 134.671 656.978 169.003 656.978 169.003L631.229 171.865L637.904 114.643Z" fill="#7CA79A"/>
<path d="M516.168 257.46H538.859L546.622 192.411L549.432 168.918L549.818 165.676L551.893 148.287C552.005 146.104 551.518 143.932 550.484 142.005C549.451 140.078 547.911 138.47 546.03 137.356C544.149 136.241 542 135.661 539.814 135.679C537.627 135.697 535.488 136.312 533.626 137.457C533.157 137.746 532.709 138.067 532.285 138.419C530.983 139.49 529.922 140.824 529.173 142.335C528.423 143.845 528.002 145.497 527.938 147.182L525.893 166.305L516.168 257.46Z" fill="#9E616A"/>
<path d="M545.201 169.003L519.451 166.142C519.451 166.142 521.359 131.809 521.359 123.226C521.359 114.643 532.803 109.875 532.803 109.875L538.525 111.782L545.201 169.003Z" fill="#7CA79A"/>
<path d="M541.85 257.46H649.493C646.082 244.425 641.429 231.746 635.596 219.6C634.649 217.669 634.089 216.639 634.089 216.639C634.089 216.639 588.314 215.738 559.701 227.181C557.876 227.969 556.24 229.136 554.9 230.604C549.946 235.724 545.615 245.335 541.85 257.46Z" fill="#2F2E41"/>
<path d="M564.47 104.152C564.47 104.152 563.562 103.665 617.874 105.643L640.605 111.903L643.627 112.735C643.627 112.735 640.766 169.957 633.136 180.447C625.507 190.938 627.414 196.66 629.321 197.614C631.229 198.567 635.997 196.66 633.136 201.428C630.275 206.197 626.46 203.336 630.275 206.197C634.09 209.058 635.997 219.549 635.997 219.549L552.073 230.993C552.073 230.993 549.212 193.799 541.582 174.725C533.953 155.651 532.045 148.022 532.045 148.022L537.767 109.874L564.47 104.152Z" fill="#BDE6DA"/>
<path d="M562 44.5C562 36.2783 565.266 28.3933 571.08 22.5797C576.893 16.7661 584.778 13.5 593 13.5C601.222 13.5 609.107 16.7661 614.92 22.5797C620.734 28.3933 624 36.2783 624 44.5V58.5H562V44.5Z" fill="#2F2E41"/>
<path d="M698.232 258.216V260.98C698.232 262.599 697.589 264.152 696.444 265.296C695.299 266.441 693.747 267.084 692.128 267.085H489.104C487.485 267.084 485.933 266.441 484.788 265.296C483.644 264.152 483 262.599 483 260.98V258.216C483 256.597 483.644 255.045 484.788 253.9C485.933 252.755 487.485 252.112 489.104 252.112H492.709C492.582 251.666 492.516 251.205 492.512 250.741V147.12C492.513 145.762 493.053 144.46 494.013 143.501C494.973 142.541 496.274 142.001 497.632 142H683.601C684.958 142.001 686.26 142.541 687.22 143.501C688.18 144.46 688.719 145.762 688.72 147.12V250.741C688.721 251.205 688.654 251.667 688.523 252.112H692.128C693.747 252.112 695.299 252.755 696.444 253.9C697.589 255.045 698.232 256.597 698.232 258.216Z" fill="#3F3D56"/>
<path d="M594.884 191.92C592.589 191.92 590.346 191.24 588.438 189.965C586.53 188.69 585.042 186.878 584.164 184.758C583.286 182.637 583.056 180.304 583.504 178.054C583.952 175.803 585.057 173.736 586.679 172.113C588.302 170.49 590.37 169.385 592.62 168.937C594.871 168.49 597.204 168.719 599.324 169.598C601.444 170.476 603.257 171.963 604.532 173.871C605.807 175.779 606.487 178.023 606.487 180.317C606.484 183.394 605.26 186.343 603.085 188.518C600.909 190.693 597.96 191.917 594.884 191.92ZM594.884 170.714C592.985 170.714 591.128 171.278 589.549 172.333C587.97 173.388 586.739 174.888 586.012 176.642C585.285 178.397 585.095 180.328 585.466 182.191C585.836 184.054 586.751 185.765 588.094 187.108C589.437 188.451 591.148 189.365 593.011 189.736C594.873 190.106 596.804 189.916 598.559 189.189C600.314 188.463 601.813 187.232 602.869 185.653C603.924 184.073 604.487 182.217 604.487 180.317C604.484 177.771 603.471 175.33 601.671 173.53C599.871 171.73 597.43 170.717 594.884 170.714V170.714Z" fill="white"/>
<path d="M590.884 186.92C596.74 186.92 601.487 182.173 601.487 176.317C601.487 170.461 596.74 165.714 590.884 165.714C585.028 165.714 580.281 170.461 580.281 176.317C580.281 182.173 585.028 186.92 590.884 186.92Z" fill="white"/>
<path d="M247.539 20.9623C244.646 18.7289 242.295 15.8718 240.66 12.6036C240.076 11.3615 239.271 10.2361 238.284 9.28248L231.5 14.5L235.646 7.27876C225.027 0.860176 204.292 4.26917 204.292 4.26917C182.722 -7.21692 174.801 7.12097 172.04 16.2138C170.946 19.5043 169.017 22.4548 166.442 24.7767C161.121 29.8502 169.5 39.7187 169.5 39.7187V40.4161L171.5 54C171.5 54 173.5 45 178.778 38.6756C182.105 34.6882 187.521 32.3174 190.037 32.3665C222.5 33 228.646 34.2855 228.646 34.2855C228.646 34.2855 234.142 37.2381 236.569 38.4784C244.413 42.4865 242.5 57 242.5 57L248.361 31.241C249.714 24.9969 248.963 22.132 247.539 20.9623Z" fill="#2F2E41"/>
</g>
<defs>
<clipPath id="clip0_137:795">
<rect width="803" height="259" fill="white"/>
</clipPath>
</defs>
</svg>
