<?xml version="1.0" encoding="UTF-8"?><svg id="Capa_1" xmlns="http://www.w3.org/2000/svg" xmlns:xlink="http://www.w3.org/1999/xlink" viewBox="0 0 40.73 20.52"><defs><style>.cls-1{fill:url(#Degradado_sin_nombre_109);opacity:.1;}.cls-1,.cls-2,.cls-3{stroke-width:0px;}.cls-2{fill:url(#Degradado_sin_nombre_74);opacity:.05;}.cls-3{fill:#fff;}</style><linearGradient id="Degradado_sin_nombre_74" x1="17.71" y1="8.45" x2="17.16" y2="8.89" gradientUnits="userSpaceOnUse"><stop offset=".73" stop-color="#3d3b3b"/><stop offset=".75" stop-color="rgba(51,50,49,.8)" stop-opacity=".8"/><stop offset=".76" stop-color="rgba(41,40,39,.57)" stop-opacity=".57"/><stop offset=".79" stop-color="rgba(34,33,32,.42)" stop-opacity=".42"/><stop offset=".82" stop-color="rgba(30,30,28,.33)" stop-opacity=".33"/><stop offset=".91" stop-color="#1d1d1b" stop-opacity=".3"/></linearGradient><linearGradient id="Degradado_sin_nombre_109" x1="24.48" y1="11.94" x2="24.07" y2="12.27" gradientUnits="userSpaceOnUse"><stop offset=".11" stop-color="#1d1d1b" stop-opacity=".3"/><stop offset=".72" stop-color="#3d3b3b"/></linearGradient></defs><path class="cls-3" d="M9.84,16.81s8.67-12.13,8.43-12.56,4.49,5.93,4.62,6.89c.77-.36,2.49-4.18,4.47-6.17.63-.63,1.49-.96,2.38-.96h2.28l-8.63,12.15s-2.19-2.77-4.73-6.24c-.29-.4-2.21,3.87-4.42,6.11-.5.51-1.19.78-1.9.78h-2.49Z"/><path class="cls-2" d="M16.29,7.55l1.96,2.71s.31-.5.41-.34c-.38-.66-1.36-1.87-2.03-2.84l-.34.47Z"/><path class="cls-1" d="M23.41,10.6l2.02,2.67s-.04,0-.26.31c-.37-.39-1.6-1.86-2-2.64l.24-.34Z"/><path class="cls-3" d="M2.62,16.47c.65.02,1.34,0,2.24,0s1.71-.34,2.31-.96c1.78-1.82,5.99-8.76,6.68-9.21s1.56-.38,1.96-.05c.22.18.49.42.72.74,1.79,2.44,5.26,7.48,7.4,9.77,1.18,1.49,4.2,1.59,5.95-.05s9.13-12.8,9.13-12.8c0,0-1.01,0-2.01.01-.89.01-1.75.37-2.38,1.01-3.02,2.99-5.19,7.89-7.1,9.32-.54.41-1.3.37-1.79-.1-2.05-1.94-5.03-7.2-7.2-9.73-.67-.86-1.61-1.49-2.67-1.71-1.77-.37-3.34.38-4.03,1.03-2.26,2.14-3.27,4.83-9.24,12.72Z"/></svg>